<svg id="svg" version="1.1" xmlns="http://www.w3.org/2000/svg" xmlns:xlink="http://www.w3.org/1999/xlink" width="400" height="400" viewBox="0, 0, 400,400"><g id="svgg"><path id="path0" d="M271.499 53.355 C 271.205 53.755,270.927 54.180,270.879 54.298 C 270.551 55.114,269.187 55.169,267.512 54.432 C 266.331 53.913,265.778 53.764,265.208 53.815 C 264.929 53.840,264.943 54.708,265.234 55.404 C 265.736 56.606,267.672 58.300,272.583 61.834 C 278.444 66.051,279.329 67.046,278.292 68.250 L 277.917 68.686 270.000 64.783 C 265.646 62.637,260.186 59.930,257.867 58.769 C 253.079 56.371,253.051 56.376,255.734 59.140 C 257.794 61.262,260.795 63.785,266.255 67.987 C 271.166 71.765,273.952 74.110,276.292 76.435 C 278.215 78.345,278.401 78.755,277.287 78.630 C 276.167 78.503,273.802 77.260,267.250 73.355 C 261.484 69.917,258.402 68.771,257.825 69.849 C 257.406 70.631,257.482 70.703,263.666 75.447 C 264.721 76.255,266.421 77.745,267.446 78.757 C 270.395 81.669,270.178 82.266,266.417 81.586 C 265.683 81.453,264.891 81.342,264.657 81.339 C 262.530 81.310,264.400 84.185,268.667 87.502 C 272.347 90.364,273.396 91.788,273.750 94.398 L 273.861 95.212 273.034 95.132 C 272.090 95.042,270.152 94.122,264.333 91.007 C 256.868 87.009,254.167 86.292,254.167 88.305 C 254.167 89.083,254.743 90.068,256.716 92.663 C 260.297 97.372,259.599 98.027,253.250 95.915 C 247.457 93.989,245.804 94.250,247.742 96.784 C 249.757 99.417,250.387 100.779,250.022 101.708 L 249.842 102.167 248.046 102.167 C 246.154 102.168,245.685 102.315,244.708 103.213 C 244.068 103.802,244.231 104.136,245.983 105.826 C 247.800 107.578,248.332 108.320,248.333 109.105 C 248.335 110.714,246.507 110.358,238.953 107.276 C 231.840 104.373,230.570 106.489,236.216 111.833 C 242.589 117.865,242.715 118.488,237.333 117.342 C 234.117 116.658,233.510 117.133,234.662 119.438 C 235.710 121.536,236.725 122.290,239.667 123.155 C 241.639 123.736,245.397 125.568,248.112 127.272 L 249.849 128.363 251.720 126.556 C 255.728 122.685,258.751 121.382,264.118 121.210 C 276.236 120.823,285.380 127.426,288.302 138.674 L 288.607 139.849 290.626 134.800 C 291.737 132.022,293.478 127.704,294.497 125.204 C 295.515 122.704,296.303 120.586,296.248 120.496 C 296.192 120.407,296.210 120.333,296.288 120.333 C 296.445 120.333,296.698 119.699,297.753 116.667 C 299.688 111.108,300.478 107.817,300.681 104.475 C 301.277 94.634,309.020 90.851,318.750 95.648 C 325.888 99.168,330.935 103.899,333.022 109.028 C 333.712 110.723,337.285 115.864,337.950 116.119 C 338.309 116.257,338.706 115.688,338.610 115.175 C 338.568 114.951,338.602 114.587,338.686 114.366 L 338.838 113.966 339.536 114.664 C 340.126 115.253,341.577 116.167,341.924 116.167 C 342.490 116.167,341.385 114.102,339.338 111.333 C 338.356 110.004,336.366 107.229,334.918 105.167 C 330.145 98.371,327.904 95.468,324.180 91.257 C 311.006 76.364,296.966 65.219,279.791 56.022 C 272.993 52.382,272.359 52.178,271.499 53.355 M74.417 84.614 C 48.358 85.951,25.919 102.943,19.009 126.573 C 14.454 142.151,17.752 153.856,27.960 158.339 C 29.463 158.999,31.933 159.790,32.068 159.654 C 32.110 159.612,31.987 158.716,31.795 157.664 C 27.751 135.546,48.075 107.753,72.801 101.589 C 89.000 97.551,104.400 100.983,110.806 110.060 C 121.208 124.799,106.180 153.564,83.320 162.672 C 79.953 164.013,72.833 165.554,72.833 164.941 C 72.833 164.540,76.883 158.638,81.255 152.667 C 90.657 139.826,94.148 133.668,95.782 127.038 C 98.055 117.821,92.542 112.500,80.719 112.500 C 78.569 112.500,78.699 112.364,79.109 114.179 C 80.605 120.804,67.075 147.287,54.635 162.083 C 49.887 167.731,48.906 167.975,40.333 165.648 C 33.752 163.860,30.977 165.499,31.368 170.941 C 31.604 174.235,33.070 175.149,40.398 176.573 C 41.580 176.803,42.580 177.024,42.620 177.065 C 42.771 177.215,41.433 180.268,39.849 183.386 C 30.881 201.042,34.782 218.459,48.814 223.410 L 49.455 223.636 49.547 219.943 C 49.864 207.319,54.775 191.398,61.539 181.066 C 62.681 179.322,63.602 179.066,73.500 177.746 C 99.695 174.252,115.665 164.047,124.151 145.381 C 130.537 131.335,130.366 118.341,123.650 107.223 C 114.895 92.729,94.933 83.562,74.417 84.614 M310.052 102.631 C 309.681 102.867,309.500 103.687,309.499 105.136 C 309.498 109.833,307.137 117.524,301.325 131.770 C 298.165 139.515,297.033 142.426,295.917 145.667 C 293.042 154.023,289.723 159.307,282.732 166.658 C 280.448 169.060,273.807 174.696,273.557 174.446 C 273.532 174.421,274.553 171.848,275.825 168.728 C 279.459 159.818,280.338 155.988,280.330 149.083 C 280.316 136.940,275.332 130.476,265.656 130.052 C 260.069 129.807,258.520 130.962,252.530 139.833 C 250.580 142.721,248.840 145.271,248.663 145.500 C 248.341 145.916,248.341 145.915,248.333 142.833 C 248.325 139.135,248.248 138.896,246.589 137.375 C 242.847 133.947,236.048 130.899,233.348 131.439 C 232.595 131.589,232.556 131.703,232.342 134.417 C 231.840 140.779,229.679 148.950,223.835 166.583 C 219.298 180.275,216.893 188.026,216.069 191.619 C 215.539 193.927,215.323 197.901,215.660 199.145 C 216.334 201.636,222.844 204.647,227.725 204.724 L 229.366 204.750 232.983 195.500 L 236.599 186.250 237.072 186.284 C 237.332 186.303,238.565 186.804,239.814 187.397 C 243.838 189.308,247.121 189.857,252.402 189.501 C 264.916 188.658,275.601 183.755,285.866 174.147 L 287.816 172.322 287.930 172.928 C 287.992 173.261,287.959 174.047,287.855 174.674 C 286.740 181.425,291.918 189.704,298.333 191.429 C 304.349 193.047,311.586 188.560,318.768 178.760 C 320.150 176.873,319.997 176.857,320.984 179.002 C 325.072 187.893,331.301 193.592,338.678 195.192 C 353.916 198.496,369.591 186.104,381.083 161.667 C 383.087 157.406,382.862 156.376,379.583 154.811 C 377.482 153.808,377.007 154.101,374.921 157.692 C 365.672 173.617,360.338 179.836,352.293 184.076 C 344.827 188.011,339.422 187.569,337.668 182.881 C 337.234 181.721,336.915 178.829,337.112 177.833 L 337.258 177.096 338.534 176.899 C 351.191 174.942,367.396 154.455,364.593 143.956 C 362.104 134.635,344.616 134.369,332.417 143.465 C 326.231 148.077,322.540 153.418,319.665 161.917 C 316.264 171.972,308.776 181.567,303.520 182.606 L 302.957 182.717 303.076 180.900 C 303.511 174.290,306.771 164.266,313.967 147.417 C 321.351 130.128,324.706 120.054,324.737 115.075 L 324.750 112.900 324.100 111.575 C 322.069 107.435,312.290 101.208,310.052 102.631 M333.695 119.208 C 333.582 119.873,333.266 121.303,332.992 122.386 C 332.499 124.335,332.486 124.667,332.899 124.667 C 333.017 124.667,333.518 124.957,334.015 125.311 C 339.950 129.554,340.366 126.820,334.943 119.211 C 333.892 117.736,333.946 117.737,333.695 119.208 M331.529 127.758 C 331.424 128.128,331.192 128.860,331.012 129.383 C 330.637 130.471,330.847 130.668,331.591 129.924 C 332.019 129.497,332.127 128.454,331.843 127.500 C 331.726 127.107,331.708 127.122,331.529 127.758 M162.750 134.152 C 161.708 134.324,161.667 134.386,161.667 135.806 C 161.667 139.510,158.669 147.820,153.832 157.527 C 148.190 168.848,137.473 186.860,136.055 187.404 C 134.706 187.922,136.211 182.248,141.001 168.750 C 147.179 151.342,148.309 145.119,145.875 141.922 C 143.037 138.196,135.305 135.470,131.695 136.923 C 130.774 137.294,130.644 137.647,130.863 139.190 C 131.335 142.523,130.572 145.940,126.833 157.250 C 123.397 167.643,122.567 171.043,122.238 176.083 C 121.747 183.617,125.352 189.842,132.083 193.081 C 137.914 195.887,140.509 194.088,148.500 181.703 L 152.250 175.891 152.366 177.219 C 152.982 184.275,160.139 191.625,166.333 191.562 C 169.143 191.533,170.565 190.787,174.654 187.196 L 175.392 186.548 175.921 187.649 C 178.447 192.908,185.060 197.001,188.752 195.592 C 190.270 195.012,190.337 193.992,189.098 190.313 C 188.269 187.851,188.195 187.194,188.596 185.841 C 189.511 182.762,194.014 174.577,198.643 167.583 C 200.132 165.333,205.581 157.588,206.022 157.094 C 206.576 156.475,206.029 158.725,204.603 162.934 C 201.915 170.864,202.314 172.037,208.738 175.093 C 215.059 178.099,217.972 177.666,217.774 173.749 C 217.629 170.870,218.289 168.524,221.128 161.833 C 225.175 152.294,225.743 149.388,224.309 145.556 C 222.877 141.729,217.509 137.183,214.408 137.171 C 212.083 137.162,208.972 140.136,203.760 147.353 C 200.068 152.465,197.835 155.314,198.091 154.583 C 198.156 154.400,198.393 153.725,198.618 153.083 C 201.140 145.897,195.166 138.487,186.498 138.051 C 183.988 137.925,184.139 137.715,183.983 141.554 C 183.811 145.764,183.360 147.437,180.125 155.833 C 177.532 162.566,176.945 164.374,175.824 169.083 C 173.567 178.561,171.204 182.755,167.911 183.126 L 167.167 183.210 167.167 181.226 C 167.167 176.085,168.405 170.620,172.087 159.500 C 176.275 146.855,177.037 142.960,175.753 140.750 C 173.780 137.353,166.314 133.564,162.750 134.152 M263.418 139.864 L 263.880 140.228 263.766 142.405 C 262.570 165.269,247.679 189.779,240.538 180.637 L 239.826 179.726 241.383 176.405 C 242.240 174.578,243.870 171.058,245.006 168.583 C 251.727 153.942,257.458 144.193,261.638 140.292 C 262.598 139.396,262.770 139.354,263.418 139.864 M357.281 145.029 C 357.861 145.574,357.779 146.474,356.899 149.250 C 354.972 155.330,349.702 161.906,343.417 166.074 C 339.671 168.558,339.147 168.298,340.408 164.582 C 343.510 155.438,348.665 147.803,353.285 145.511 C 355.108 144.606,356.635 144.422,357.281 145.029 M199.900 183.542 C 199.282 184.665,198.573 186.030,198.325 186.575 L 197.874 187.567 198.196 188.492 C 198.373 189.001,198.661 190.007,198.835 190.729 C 199.009 191.450,199.174 192.055,199.201 192.073 C 199.228 192.091,199.838 192.186,200.558 192.285 C 202.760 192.588,205.831 194.514,206.258 195.860 C 206.470 196.528,206.621 196.092,206.725 194.510 C 206.845 192.685,207.401 189.735,208.156 186.926 C 208.628 185.167,208.656 184.833,208.328 184.833 C 207.990 184.833,204.214 183.121,202.824 182.337 C 200.943 181.277,201.206 181.168,199.900 183.542 M150.002 195.850 C 147.425 198.934,144.532 201.277,142.173 202.192 C 140.931 202.673,140.908 202.591,142.549 203.547 C 143.301 203.986,144.404 204.754,145.000 205.254 C 146.456 206.477,146.462 206.479,146.976 205.816 C 150.073 201.825,153.492 199.561,157.393 198.917 L 158.037 198.811 156.748 198.077 C 155.293 197.248,154.058 196.358,152.558 195.056 C 151.310 193.974,151.663 193.864,150.002 195.850 M331.286 195.356 C 331.131 195.603,331.002 196.402,330.939 197.500 C 330.688 201.881,328.569 208.039,322.165 223.000 C 317.984 232.768,317.544 233.883,315.586 239.667 C 314.640 242.463,313.593 245.348,313.259 246.078 C 308.873 255.680,294.124 263.866,289.621 259.198 C 283.773 253.135,292.636 224.614,302.311 218.361 C 304.259 217.101,306.449 216.627,306.862 217.375 C 307.210 218.006,307.266 224.181,306.937 225.627 C 306.024 229.643,306.255 230.612,308.390 231.693 C 311.968 233.506,313.569 230.812,313.555 223.000 C 313.545 216.982,311.949 213.345,308.522 211.528 C 303.558 208.896,293.869 210.227,286.917 214.494 C 277.811 220.084,270.509 231.817,270.502 240.869 C 270.499 243.817,269.074 246.880,264.523 253.722 C 260.399 259.922,258.342 260.811,258.336 256.397 C 258.330 252.142,259.444 248.267,263.959 236.833 C 269.772 222.111,270.223 219.271,267.475 214.683 C 265.568 211.499,261.189 208.070,258.773 207.870 C 256.532 207.684,254.536 209.648,247.333 219.127 C 244.537 222.807,242.203 225.821,242.146 225.825 C 242.088 225.830,242.300 224.840,242.617 223.625 C 243.829 218.971,243.239 216.257,240.395 213.414 C 237.657 210.676,233.606 208.833,230.324 208.833 C 228.292 208.833,228.281 208.849,228.147 211.975 C 227.763 220.937,217.040 249.494,211.528 256.235 C 205.912 263.103,206.356 254.362,212.583 235.500 C 217.356 221.041,217.909 218.539,216.813 216.344 C 215.122 212.960,209.172 209.281,205.355 209.258 L 203.961 209.250 203.505 211.506 C 202.119 218.374,200.050 223.392,193.374 236.083 C 186.687 248.795,179.278 260.667,178.031 260.667 C 177.180 260.667,179.431 252.819,183.791 240.583 C 190.338 222.213,190.824 218.141,186.931 214.248 C 183.857 211.174,177.093 208.782,175.124 210.072 C 174.484 210.492,174.333 211.046,174.333 212.989 C 174.333 216.236,173.773 218.468,170.328 228.936 C 163.137 250.785,163.408 257.428,171.783 264.587 C 178.731 270.526,182.409 268.477,191.328 253.699 C 192.452 251.838,193.390 250.338,193.414 250.366 C 193.438 250.394,193.586 251.199,193.744 252.155 C 194.452 256.447,196.484 260.223,199.729 263.277 C 205.825 269.014,211.773 267.445,218.001 258.457 C 218.494 257.745,218.945 257.220,219.003 257.290 C 219.062 257.360,219.528 258.054,220.039 258.833 C 223.590 264.245,228.123 267.143,232.083 266.532 C 234.276 266.194,234.489 265.156,233.180 261.189 C 232.356 258.690,232.336 258.047,233.018 255.939 C 234.549 251.210,242.154 238.589,248.329 230.529 C 249.265 229.308,250.065 228.343,250.108 228.386 C 250.183 228.460,249.699 230.220,247.833 236.667 C 246.477 241.351,245.892 243.784,245.308 247.167 C 243.974 254.896,246.449 261.844,251.841 265.505 C 258.092 269.750,263.469 267.152,270.903 256.292 C 272.611 253.796,272.371 253.920,273.018 255.203 C 278.995 267.043,289.489 272.052,300.189 268.171 C 302.754 267.241,304.965 265.840,309.215 262.453 L 311.680 260.488 311.867 261.036 C 314.100 267.576,320.105 272.881,324.781 272.444 C 327.149 272.223,327.286 271.572,325.908 267.055 C 325.439 265.519,325.321 264.881,325.375 264.167 C 325.644 260.545,332.906 249.697,344.443 235.681 C 344.874 235.157,343.961 238.171,341.690 244.777 C 337.693 256.400,337.234 261.796,339.758 267.505 C 343.468 275.895,350.640 278.511,357.033 273.806 C 364.385 268.395,381.332 244.086,381.954 238.060 C 382.114 236.516,379.613 234.474,377.515 234.434 L 376.583 234.417 373.886 239.167 C 365.414 254.090,360.829 260.778,355.713 265.677 C 352.491 268.764,351.499 268.907,351.501 266.288 C 351.505 262.167,353.605 255.567,358.027 245.788 C 365.539 229.172,365.585 226.543,358.488 219.458 C 353.897 214.873,351.268 215.772,343.738 224.500 C 341.212 227.427,339.500 229.196,339.500 228.878 C 339.500 228.457,340.449 225.720,341.999 221.667 C 345.935 211.375,346.789 206.889,345.331 204.167 C 343.074 199.956,332.542 193.349,331.286 195.356 M94.000 195.282 C 82.120 196.555,69.222 207.740,57.906 226.583 C 48.881 241.613,44.744 254.673,44.763 268.083 C 44.792 290.204,56.430 301.875,75.667 299.075 C 87.463 297.358,97.642 289.818,106.482 276.250 C 108.901 272.538,114.373 262.292,115.238 259.856 C 116.937 255.069,114.995 251.203,111.414 252.244 C 109.723 252.735,109.180 253.459,106.700 258.526 C 98.573 275.132,89.551 284.649,78.235 288.556 C 65.991 292.784,60.120 287.827,60.110 273.250 C 60.108 269.583,60.204 268.311,60.766 264.583 C 64.891 237.217,86.083 209.513,103.958 208.117 L 104.833 208.049 104.833 209.433 C 104.833 218.175,99.590 232.758,94.678 237.680 C 93.485 238.875,93.314 238.983,91.537 239.664 C 87.863 241.070,86.974 242.790,88.657 245.235 C 92.083 250.215,98.876 248.734,104.025 241.883 C 113.006 229.935,118.379 208.615,114.010 202.265 C 111.369 198.426,100.397 194.597,94.000 195.282 M258.833 198.110 C 254.002 198.899,248.109 199.018,244.333 198.405 C 243.371 198.248,242.446 198.112,242.278 198.102 C 242.038 198.087,241.800 198.523,241.155 200.167 C 240.182 202.643,240.208 202.408,240.873 202.683 C 241.591 202.980,244.578 204.971,245.417 205.710 L 246.083 206.298 248.333 204.105 C 252.406 200.135,255.727 198.600,259.462 198.959 C 260.292 199.038,260.333 199.024,260.331 198.646 C 260.326 197.946,260.175 197.892,258.833 198.110 M173.167 199.490 C 172.132 200.094,169.689 200.654,167.418 200.805 L 165.754 200.917 166.918 201.624 C 167.559 202.013,168.396 202.565,168.777 202.851 L 169.471 203.372 170.029 202.947 C 170.915 202.271,172.983 201.362,174.218 201.106 C 175.661 200.806,175.643 200.857,174.589 200.034 C 173.637 199.290,173.559 199.260,173.167 199.490 M192.009 204.324 C 191.876 204.408,191.301 204.570,190.731 204.683 L 189.694 204.889 190.889 205.728 C 191.546 206.189,192.730 207.208,193.520 207.991 L 194.957 209.417 195.190 208.135 L 195.424 206.854 194.722 206.302 C 194.336 205.998,193.745 205.394,193.409 204.958 C 192.804 204.176,192.478 204.028,192.009 204.324 M157.845 207.867 C 157.284 208.022,156.338 208.625,155.484 209.372 C 155.117 209.693,148.337 218.138,143.914 223.782 C 142.154 226.030,142.225 226.094,142.872 222.833 C 143.314 220.603,143.342 218.234,142.941 217.052 C 141.527 212.891,135.380 208.827,130.515 208.836 C 128.318 208.840,128.535 208.395,127.991 214.000 C 127.643 217.588,126.785 220.532,123.744 228.583 C 118.893 241.427,117.811 245.989,118.333 251.398 C 119.218 260.578,124.504 266.667,131.587 266.667 C 134.383 266.667,134.709 265.733,133.333 261.667 C 132.019 257.783,132.344 256.526,136.714 248.583 C 139.829 242.921,149.667 228.000,150.284 228.000 C 150.561 228.000,150.047 230.072,148.930 233.455 C 146.109 242.003,146.395 242.860,153.125 246.035 C 159.418 249.004,162.182 248.537,161.916 244.552 C 161.738 241.890,162.301 239.955,165.715 231.500 C 167.802 226.329,169.500 220.981,169.500 219.575 C 169.500 214.983,161.433 206.879,157.845 207.867 M143.271 256.136 L 142.020 258.606 142.579 260.367 C 144.445 266.246,143.096 271.072,138.782 273.957 C 134.340 276.928,125.912 276.322,120.553 272.645 C 119.603 271.993,119.756 271.851,118.083 274.938 C 107.311 294.819,93.073 306.179,76.211 308.349 L 74.673 308.546 75.192 309.148 C 87.859 323.837,105.410 337.341,123.216 346.098 C 126.541 347.733,126.924 347.802,127.618 346.884 C 129.130 344.882,129.630 344.758,131.854 345.833 C 133.713 346.733,134.167 346.729,134.167 345.817 C 134.167 344.242,132.818 342.867,127.455 338.978 C 120.614 334.017,119.741 333.079,120.858 331.891 L 121.215 331.510 123.233 332.567 C 124.342 333.148,128.550 335.292,132.583 337.333 C 136.617 339.373,141.125 341.671,142.602 342.438 C 145.584 343.988,145.500 343.956,145.500 343.519 C 145.500 342.488,140.484 337.958,132.865 332.108 C 127.218 327.772,121.937 323.128,121.301 321.939 C 120.522 320.484,124.379 322.156,130.083 325.747 C 136.222 329.610,140.052 331.217,141.250 330.432 C 142.084 329.885,141.640 329.415,136.588 325.498 C 129.130 319.716,127.893 317.533,132.667 318.583 C 137.121 319.563,136.497 317.663,130.833 313.006 C 126.798 309.687,125.693 308.219,125.529 305.961 L 125.460 305.000 126.022 305.003 C 126.754 305.006,128.796 305.926,132.000 307.698 C 139.363 311.768,143.263 313.371,144.436 312.809 C 145.642 312.231,145.259 311.083,142.832 308.000 C 138.824 302.908,139.495 302.104,145.944 304.272 C 152.570 306.500,153.841 305.871,150.481 302.027 C 149.546 300.958,149.138 300.010,149.199 299.053 L 149.250 298.250 150.917 298.155 C 155.155 297.914,155.711 296.869,153.047 294.152 C 151.122 292.189,150.848 291.817,150.839 291.151 C 150.818 289.598,153.022 289.880,158.180 292.089 C 167.795 296.207,169.430 294.065,161.861 287.265 C 156.748 282.673,156.642 281.890,161.247 282.730 C 162.565 282.970,163.959 283.167,164.345 283.167 L 165.047 283.167 164.954 282.271 C 164.696 279.767,162.819 277.985,159.249 276.854 C 155.885 275.788,155.201 275.213,155.566 273.759 C 155.898 272.437,156.937 272.247,160.973 272.767 C 163.256 273.061,163.749 272.979,163.926 272.274 C 164.205 271.162,162.576 269.820,158.500 267.803 C 154.089 265.619,153.167 264.853,153.167 263.370 C 153.167 262.360,153.671 262.055,154.922 262.306 C 157.811 262.886,156.783 260.268,153.453 258.569 C 152.425 258.044,151.310 257.442,150.975 257.232 C 150.206 256.749,144.688 253.667,144.593 253.667 C 144.554 253.667,143.959 254.778,143.271 256.136 M85.781 257.162 C 84.212 257.657,84.503 259.538,86.492 261.757 C 87.064 262.395,87.982 263.582,88.534 264.396 C 89.085 265.209,89.828 266.259,90.184 266.729 C 90.540 267.199,90.834 267.696,90.836 267.833 C 90.843 268.185,91.226 267.682,93.178 264.767 C 94.997 262.051,94.977 262.100,94.156 262.338 C 92.625 262.783,91.037 261.733,89.447 259.227 C 88.291 257.404,87.114 256.741,85.781 257.162 M74.036 265.093 C 72.537 266.144,72.881 267.774,75.404 271.569 C 77.843 275.237,78.098 276.003,76.880 275.996 C 76.039 275.991,75.016 275.506,73.774 274.523 C 72.091 273.190,70.819 272.751,69.792 273.148 C 69.091 273.419,69.208 277.044,70.002 279.667 C 70.505 281.328,70.417 281.270,72.072 281.030 C 77.028 280.314,82.766 277.014,87.292 272.280 C 88.758 270.746,88.808 270.658,88.408 270.326 C 88.266 270.208,87.553 269.338,86.823 268.393 C 83.655 264.290,81.021 264.088,81.656 267.997 C 81.875 269.347,81.749 270.000,81.269 270.000 C 80.695 270.000,78.356 267.856,77.146 266.220 C 76.116 264.828,74.995 264.422,74.036 265.093 M235.500 270.843 C 227.039 272.094,214.027 283.948,215.665 288.912 C 216.479 291.377,221.428 292.477,223.513 290.658 L 224.083 290.160 223.250 290.287 C 219.868 290.801,219.529 289.047,222.295 285.345 C 223.281 284.025,226.770 280.381,226.912 280.523 C 226.958 280.569,226.739 281.502,226.425 282.595 C 225.669 285.223,223.327 293.779,222.745 296.042 C 222.205 298.134,222.205 298.135,220.920 296.837 C 218.622 294.515,218.212 298.927,220.462 301.767 L 221.135 302.617 220.563 305.100 C 218.936 312.151,218.176 315.766,218.262 316.037 C 218.493 316.767,220.882 317.432,222.324 317.168 C 223.163 317.015,223.221 316.941,223.490 315.695 C 223.841 314.070,225.515 306.760,225.586 306.546 C 225.627 306.422,226.440 306.891,227.673 307.748 C 233.394 311.726,239.716 314.868,242.500 315.118 C 244.556 315.302,247.192 313.402,248.452 310.829 C 249.423 308.845,249.336 307.320,248.322 308.547 C 246.107 311.225,240.869 309.937,231.697 304.458 L 229.417 303.096 230.775 302.900 C 235.946 302.152,240.616 297.820,244.430 290.231 C 248.422 282.288,248.341 278.008,244.124 274.063 C 241.258 271.382,238.590 270.386,235.500 270.843 M335.814 274.250 C 333.791 275.303,328.314 281.840,326.051 285.901 C 325.878 286.212,325.864 286.211,325.396 285.881 C 322.340 283.727,319.596 284.231,316.355 287.540 C 314.496 289.439,312.910 291.833,311.676 294.604 C 310.479 297.292,310.025 294.525,310.920 290.000 C 311.612 286.502,311.603 286.484,308.679 285.338 C 306.435 284.459,306.682 284.346,304.338 287.320 C 303.390 288.521,302.588 289.476,302.553 289.442 C 302.471 289.360,303.431 287.567,304.940 284.986 C 305.615 283.832,306.167 282.700,306.167 282.469 C 306.167 281.147,303.251 279.918,302.386 280.875 C 300.485 282.976,296.576 290.488,294.754 295.542 C 294.247 296.950,294.287 296.924,293.083 296.609 C 292.092 296.350,292.084 296.299,292.650 293.833 C 294.085 287.580,292.086 283.897,286.861 283.168 C 283.335 282.676,282.078 283.648,282.092 286.857 C 282.100 288.796,282.090 288.852,281.758 288.750 C 281.570 288.692,281.313 288.631,281.186 288.614 C 281.059 288.597,279.945 289.971,278.710 291.667 C 273.504 298.816,271.277 300.993,269.162 300.998 C 266.654 301.005,267.083 295.695,270.085 289.583 C 271.210 287.292,273.638 284.418,272.725 286.458 C 271.141 289.997,271.188 291.487,272.918 292.633 C 274.504 293.683,275.328 293.537,275.422 292.189 C 275.538 290.502,277.357 287.347,279.322 285.423 C 280.461 284.308,280.375 283.682,278.917 282.464 C 277.172 281.008,275.958 281.015,274.852 282.487 L 274.122 283.460 272.897 282.949 L 271.672 282.437 270.794 282.718 C 269.633 283.089,267.963 284.370,266.848 285.746 C 265.880 286.941,263.833 290.263,263.833 290.640 C 263.833 290.767,263.620 290.640,263.350 290.351 C 262.480 289.420,261.988 289.593,261.149 291.125 C 257.516 297.754,250.902 304.166,249.606 302.315 C 249.126 301.629,249.268 299.144,249.917 296.897 L 250.163 296.044 251.188 296.281 C 254.612 297.072,258.327 293.415,259.849 287.756 C 260.678 284.677,259.986 283.735,255.849 282.310 C 252.869 281.284,249.492 284.152,246.502 290.247 C 242.119 299.180,243.473 305.454,249.928 306.120 C 252.551 306.391,258.065 301.441,261.454 295.773 C 261.955 294.935,262.313 294.426,262.249 294.641 C 260.471 300.669,261.674 303.173,266.996 304.519 C 270.029 305.286,272.545 304.112,275.582 300.514 C 276.836 299.027,276.938 299.021,276.983 300.426 C 277.081 303.408,283.059 306.582,285.874 305.146 C 287.389 304.373,289.274 302.085,290.663 299.333 C 290.871 298.921,291.058 298.563,291.080 298.538 C 291.166 298.437,293.500 299.075,293.500 299.200 C 293.500 299.274,293.267 300.254,292.982 301.376 C 292.182 304.532,292.279 304.920,294.083 305.770 C 295.988 306.669,296.380 306.438,297.236 303.917 C 298.786 299.348,301.667 294.771,304.998 291.583 L 305.869 290.750 305.753 292.048 C 305.464 295.283,306.467 296.486,309.708 296.790 C 310.235 296.839,310.667 296.906,310.667 296.938 C 310.667 296.970,310.479 297.717,310.250 298.599 C 309.328 302.146,310.051 303.689,312.978 304.428 C 315.137 304.973,316.371 304.193,319.131 300.537 C 320.272 299.027,320.268 299.019,319.646 301.427 C 317.890 308.225,320.784 314.103,325.292 312.895 C 325.709 312.783,325.803 312.500,325.422 312.500 C 325.288 312.500,324.918 312.272,324.600 311.992 C 319.753 307.737,329.989 284.664,339.465 278.484 C 341.383 277.233,341.416 276.688,339.673 275.120 C 338.270 273.860,337.079 273.591,335.814 274.250 M240.376 274.811 C 244.865 279.779,235.343 299.823,228.478 299.856 C 227.924 299.858,227.438 299.827,227.398 299.787 C 227.249 299.638,231.467 284.757,232.452 281.953 C 233.433 279.161,233.279 278.740,231.090 278.247 L 230.259 278.060 231.529 277.203 C 235.682 274.401,239.157 273.461,240.376 274.811 M345.585 283.446 C 344.946 283.875,343.769 284.871,342.971 285.660 L 341.518 287.094 340.884 286.616 C 337.771 284.269,335.245 284.585,332.452 287.672 C 329.530 290.900,329.411 294.405,332.081 298.589 C 333.130 300.232,333.160 300.045,331.708 300.924 C 323.942 305.624,321.756 309.728,325.917 311.794 C 328.035 312.847,331.068 312.723,333.543 311.482 C 338.345 309.075,340.261 305.389,338.507 301.931 L 337.930 300.793 338.340 300.459 C 340.370 298.806,349.213 295.359,350.336 295.783 C 351.804 296.337,350.681 295.023,349.083 294.316 C 347.582 293.652,344.904 294.416,339.583 297.028 C 336.168 298.704,336.537 298.626,336.152 297.755 C 334.851 294.815,336.777 289.614,339.459 288.823 C 340.411 288.542,340.436 288.623,339.751 289.760 C 338.466 291.894,338.579 293.186,340.170 294.548 C 341.185 295.416,341.667 295.458,341.667 294.676 C 341.667 292.867,345.281 288.931,348.708 287.006 C 349.830 286.376,349.879 286.174,349.219 284.870 C 348.727 283.898,347.511 282.667,347.044 282.667 C 346.880 282.667,346.224 283.017,345.585 283.446 M255.751 286.875 C 255.218 289.540,254.403 291.417,253.237 292.664 C 252.503 293.448,251.329 294.052,251.061 293.783 C 250.664 293.387,255.071 286.333,255.715 286.333 C 255.795 286.333,255.811 286.577,255.751 286.875 M287.970 287.206 C 288.291 288.488,288.378 290.374,288.178 291.667 C 287.937 293.217,287.791 293.379,287.452 292.466 C 286.653 290.311,286.535 288.220,287.145 287.036 C 287.574 286.202,287.727 286.234,287.970 287.206 M323.523 288.734 C 324.157 290.126,315.939 301.155,315.141 299.982 C 314.438 298.949,316.455 294.447,319.075 291.202 C 321.062 288.741,323.029 287.650,323.523 288.734 M285.821 295.381 L 286.865 296.345 286.586 297.041 C 285.586 299.541,282.414 303.147,281.776 302.509 C 281.106 301.839,282.344 295.441,283.516 293.514 L 283.851 292.963 284.314 293.690 C 284.568 294.090,285.247 294.851,285.821 295.381 M334.167 303.717 C 334.167 305.397,328.946 310.002,328.054 309.110 C 327.654 308.709,330.045 306.068,332.417 304.291 C 334.149 302.993,334.167 302.987,334.167 303.717 " stroke="none" fill="#fbfbfb" fill-rule="evenodd"></path><path id="path1" d="M191.000 29.188 C 181.483 29.770,173.957 30.708,166.250 32.272 C 165.517 32.421,164.617 32.600,164.250 32.670 C 163.483 32.816,162.016 33.136,161.167 33.342 C 160.846 33.420,160.246 33.560,159.833 33.654 C 159.421 33.748,158.483 33.982,157.750 34.175 C 157.017 34.368,156.154 34.588,155.833 34.663 C 155.512 34.738,154.688 34.960,154.000 35.156 C 153.313 35.352,152.337 35.623,151.833 35.759 C 151.329 35.895,150.729 36.075,150.500 36.159 C 150.271 36.243,149.296 36.549,148.333 36.839 C 146.187 37.487,144.685 37.986,142.833 38.667 C 142.054 38.954,141.079 39.300,140.667 39.436 C 140.254 39.572,139.729 39.765,139.500 39.864 C 139.271 39.963,138.933 40.103,138.750 40.174 C 136.125 41.192,134.314 41.906,133.875 42.098 C 133.577 42.227,133.071 42.446,132.750 42.583 C 131.229 43.235,130.848 43.402,129.917 43.825 C 129.367 44.075,128.579 44.423,128.167 44.598 C 127.214 45.002,119.138 49.037,118.250 49.552 C 117.883 49.765,117.171 50.164,116.667 50.440 C 113.144 52.366,108.611 55.141,104.500 57.888 C 102.438 59.267,100.712 60.439,100.667 60.494 C 100.621 60.548,99.796 61.151,98.833 61.833 C 97.871 62.516,97.046 63.113,97.000 63.162 C 96.954 63.210,96.279 63.734,95.500 64.326 C 94.721 64.918,94.046 65.444,94.000 65.494 C 93.954 65.544,93.642 65.790,93.306 66.040 C 92.970 66.290,92.595 66.590,92.473 66.706 C 92.350 66.822,91.975 67.122,91.639 67.372 C 91.304 67.623,90.929 67.924,90.806 68.040 C 90.684 68.156,90.171 68.588,89.667 68.998 C 89.162 69.409,88.712 69.784,88.667 69.831 C 88.621 69.878,88.021 70.404,87.333 71.000 C 86.646 71.596,86.046 72.121,86.000 72.166 C 85.954 72.212,85.204 72.887,84.333 73.666 C 83.462 74.445,82.635 75.207,82.495 75.358 C 82.271 75.600,81.588 75.645,76.995 75.722 C 72.103 75.804,70.352 75.913,67.417 76.321 C 64.697 76.698,60.964 77.442,58.917 78.013 C 55.394 78.997,52.105 80.119,49.836 81.111 C 49.514 81.252,49.100 81.428,48.917 81.503 C 47.993 81.879,43.457 84.138,42.583 84.658 C 42.033 84.985,41.227 85.439,40.792 85.667 C 40.356 85.896,40.000 86.139,40.000 86.208 C 40.000 86.277,39.922 86.333,39.828 86.333 C 39.683 86.333,36.449 88.429,35.919 88.866 C 35.826 88.943,35.225 89.393,34.583 89.867 C 33.942 90.341,33.379 90.771,33.333 90.823 C 33.287 90.876,32.975 91.123,32.639 91.373 C 32.304 91.624,31.927 91.923,31.802 92.039 C 31.677 92.155,31.090 92.659,30.496 93.159 C 29.092 94.341,24.988 98.447,23.825 99.833 C 23.326 100.429,22.876 100.954,22.827 101.000 C 22.578 101.232,20.658 103.690,20.157 104.417 C 19.842 104.875,19.540 105.287,19.487 105.333 C 19.258 105.530,17.667 108.001,17.667 108.159 C 17.667 108.255,17.610 108.333,17.541 108.333 C 17.472 108.333,17.231 108.690,17.004 109.125 C 16.777 109.560,16.552 109.954,16.504 110.000 C 16.360 110.137,15.997 110.812,14.930 112.920 C 14.039 114.682,13.630 115.556,12.746 117.583 C 12.250 118.721,10.742 123.025,10.409 124.250 C 10.260 124.800,10.064 125.513,9.974 125.833 C 9.784 126.515,9.612 127.229,9.332 128.500 C 7.652 136.133,7.608 142.970,9.200 148.917 C 9.492 150.008,10.004 151.563,10.175 151.873 C 10.262 152.032,10.333 152.235,10.333 152.324 C 10.333 152.737,12.791 157.359,13.175 157.667 C 13.232 157.712,13.347 157.872,13.431 158.022 C 14.687 160.263,21.345 166.000,22.689 166.000 C 22.854 166.000,22.802 166.647,22.488 168.489 C 21.985 171.438,23.117 176.980,24.499 178.333 C 24.546 178.379,24.800 178.735,25.064 179.123 C 25.687 180.043,27.475 181.718,28.514 182.358 C 28.965 182.635,29.330 182.949,29.325 183.056 C 29.286 184.006,28.797 186.813,28.507 187.750 C 28.136 188.948,27.474 191.502,27.188 192.833 C 27.017 193.631,26.819 194.754,26.467 196.917 C 26.171 198.734,26.171 206.852,26.466 208.333 C 26.585 208.929,26.764 209.829,26.863 210.333 C 27.251 212.290,28.174 215.158,28.899 216.663 C 29.143 217.167,29.358 218.072,29.482 219.107 C 29.589 220.011,29.753 221.313,29.846 222.000 C 29.938 222.688,30.090 223.813,30.182 224.500 C 30.275 225.188,30.422 226.181,30.509 226.708 C 31.113 230.370,31.335 231.654,31.498 232.417 C 31.576 232.783,31.727 233.533,31.833 234.083 C 32.026 235.079,32.183 235.822,32.500 237.250 C 32.592 237.662,32.737 238.319,32.823 238.708 C 32.909 239.098,33.027 239.604,33.086 239.833 C 33.210 240.318,33.436 241.236,33.651 242.125 C 33.921 243.243,34.672 246.071,34.835 246.583 C 34.923 246.858,35.227 247.871,35.511 248.833 C 36.158 251.024,36.244 251.304,36.723 252.798 C 37.033 253.765,37.085 254.172,36.979 254.798 C 36.327 258.665,36.243 259.400,35.899 264.285 C 35.610 268.377,35.760 272.755,36.327 276.833 C 36.569 278.579,37.233 281.912,37.487 282.667 C 37.565 282.896,37.723 283.421,37.838 283.833 C 39.787 290.793,43.655 297.083,48.500 301.169 C 49.096 301.672,49.621 302.127,49.667 302.181 C 49.712 302.234,50.433 302.735,51.269 303.294 C 54.457 305.429,58.036 307.005,61.500 307.801 C 63.343 308.224,66.090 308.667,66.874 308.667 C 67.357 308.667,67.543 308.777,67.930 309.292 C 68.188 309.635,68.442 309.954,68.496 310.000 C 68.549 310.046,69.003 310.571,69.504 311.166 C 70.006 311.762,70.529 312.362,70.667 312.500 C 70.804 312.638,71.404 313.312,72.000 313.997 C 75.163 317.637,82.016 324.489,85.670 327.667 C 86.355 328.262,87.029 328.863,87.166 329.002 C 87.304 329.141,87.904 329.665,88.500 330.168 C 89.096 330.670,89.621 331.120,89.667 331.168 C 89.712 331.216,90.162 331.590,90.667 332.000 C 91.171 332.410,91.621 332.784,91.667 332.831 C 91.712 332.878,92.087 333.178,92.500 333.498 C 92.912 333.817,93.362 334.170,93.500 334.282 C 93.638 334.393,94.237 334.866,94.833 335.333 C 95.429 335.800,96.029 336.273,96.167 336.385 C 96.304 336.497,96.679 336.771,97.000 336.994 C 97.321 337.218,97.621 337.444,97.667 337.496 C 97.891 337.754,103.222 341.484,105.500 342.977 C 106.921 343.909,108.158 344.728,108.250 344.798 C 108.403 344.915,111.130 346.574,112.150 347.170 C 112.388 347.310,113.071 347.714,113.667 348.068 C 114.263 348.423,115.087 348.900,115.500 349.130 C 115.912 349.359,116.587 349.736,117.000 349.967 C 119.016 351.098,120.746 351.994,124.417 353.811 C 126.617 354.900,128.717 355.922,129.083 356.081 C 129.450 356.241,130.222 356.588,130.799 356.852 C 131.376 357.117,131.880 357.333,131.919 357.333 C 131.958 357.333,132.386 357.514,132.870 357.735 C 135.244 358.819,141.676 361.267,145.583 362.573 C 151.721 364.625,159.681 366.754,165.250 367.833 C 165.800 367.940,166.550 368.091,166.917 368.169 C 167.283 368.247,168.071 368.397,168.667 368.501 C 169.262 368.606,170.087 368.755,170.500 368.832 C 170.912 368.909,171.813 369.056,172.500 369.158 C 173.188 369.261,174.200 369.414,174.750 369.498 C 176.875 369.823,180.344 370.234,183.083 370.486 C 184.092 370.579,185.967 370.751,187.250 370.869 C 190.139 371.134,207.274 371.126,209.856 370.858 C 210.806 370.760,212.446 370.602,213.500 370.509 C 220.653 369.872,222.486 369.691,223.917 369.481 C 227.813 368.909,228.973 368.718,231.958 368.152 C 234.038 367.757,234.612 367.643,235.333 367.480 C 236.117 367.302,237.120 367.079,238.250 366.830 C 239.476 366.559,243.244 365.638,243.750 365.484 C 244.025 365.401,245.075 365.103,246.083 364.823 C 249.623 363.840,254.893 362.147,257.958 361.010 C 261.397 359.734,261.997 359.507,263.250 359.006 C 263.983 358.713,264.827 358.367,265.125 358.237 C 265.423 358.106,265.929 357.888,266.250 357.750 C 267.771 357.098,268.152 356.931,269.083 356.508 C 269.633 356.258,270.421 355.911,270.833 355.735 C 271.786 355.331,279.862 351.296,280.750 350.781 C 281.117 350.568,281.829 350.168,282.333 349.892 C 284.630 348.632,285.280 348.262,285.692 347.975 C 285.936 347.805,286.187 347.667,286.250 347.667 C 286.313 347.667,286.564 347.525,286.808 347.353 C 287.051 347.180,287.512 346.890,287.833 346.707 C 289.597 345.703,298.071 340.170,298.333 339.851 C 298.379 339.796,298.904 339.416,299.500 339.009 C 300.096 338.601,300.621 338.223,300.667 338.167 C 300.712 338.112,301.012 337.887,301.333 337.667 C 301.654 337.446,301.954 337.221,302.000 337.167 C 302.046 337.112,302.346 336.884,302.667 336.661 C 302.987 336.438,303.362 336.163,303.500 336.052 C 303.637 335.940,304.237 335.467,304.833 335.000 C 306.254 333.887,306.272 333.873,307.336 333.002 C 307.839 332.591,308.287 332.216,308.333 332.169 C 308.379 332.122,308.771 331.799,309.204 331.451 C 309.637 331.103,310.089 330.728,310.208 330.617 C 310.327 330.507,310.910 330.006,311.504 329.505 C 312.098 329.003,312.696 328.478,312.834 328.338 C 312.971 328.198,313.721 327.525,314.500 326.843 C 315.279 326.160,318.002 323.525,320.552 320.987 C 323.680 317.872,325.333 316.342,325.635 316.281 C 325.882 316.231,326.308 316.101,326.583 315.990 C 326.871 315.875,328.109 315.772,329.500 315.747 C 331.908 315.705,332.593 315.581,334.124 314.908 C 339.852 312.393,343.283 307.653,342.510 303.323 C 342.300 302.151,342.442 301.700,343.027 301.672 C 343.087 301.669,343.687 301.410,344.360 301.096 C 347.669 299.553,349.364 299.011,350.233 299.221 C 351.260 299.469,352.565 298.987,353.515 298.010 C 355.758 295.703,354.015 292.376,349.752 290.826 L 349.254 290.645 349.669 290.326 C 349.897 290.151,350.330 289.888,350.632 289.743 C 352.072 289.048,353.000 287.646,353.000 286.168 C 353.000 285.344,353.006 285.333,353.522 285.333 C 355.207 285.333,359.324 283.711,361.633 282.138 C 363.923 280.577,368.962 275.852,370.756 273.583 C 371.119 273.125,371.530 272.637,371.671 272.500 C 371.811 272.362,372.185 271.912,372.500 271.500 C 372.816 271.087,373.121 270.712,373.178 270.667 C 373.235 270.621,374.118 269.458,375.141 268.083 C 376.165 266.708,377.061 265.508,377.134 265.417 C 377.207 265.325,377.596 264.762,377.999 264.167 C 378.402 263.571,378.830 262.984,378.949 262.863 C 379.069 262.742,379.167 262.579,379.167 262.500 C 379.167 262.421,379.273 262.250,379.404 262.120 C 379.604 261.920,379.993 261.342,381.502 259.000 C 382.791 256.999,384.074 254.937,384.664 253.917 C 384.823 253.642,385.199 253.004,385.500 252.500 C 386.376 251.031,387.443 249.080,388.645 246.750 C 392.524 239.232,392.272 234.405,387.767 229.900 C 384.270 226.404,379.282 224.688,375.250 225.596 C 373.398 226.013,373.333 226.032,373.238 226.187 C 373.039 226.508,372.857 226.299,372.750 225.625 C 372.493 224.005,370.423 219.060,369.837 218.667 C 369.289 218.298,369.193 217.563,369.347 214.909 C 369.432 213.446,369.577 210.938,369.671 209.333 C 369.947 204.583,370.160 200.467,370.317 196.865 C 370.398 195.003,370.492 193.452,370.524 193.419 C 373.308 190.582,374.777 189.032,375.505 188.167 C 376.007 187.571,376.456 187.046,376.504 187.000 C 376.553 186.954,376.851 186.579,377.167 186.167 C 377.483 185.754,377.784 185.379,377.837 185.333 C 377.890 185.287,378.113 184.987,378.333 184.667 C 378.554 184.346,378.779 184.046,378.834 184.000 C 378.889 183.954,379.268 183.429,379.675 182.833 C 380.083 182.237,380.506 181.656,380.614 181.541 C 380.723 181.426,380.859 181.182,380.917 180.999 C 380.975 180.816,381.087 180.667,381.167 180.667 C 381.246 180.667,381.358 180.517,381.416 180.334 C 381.474 180.152,381.611 179.908,381.719 179.793 C 381.828 179.678,382.172 179.171,382.484 178.667 C 384.817 174.900,384.566 175.325,386.277 172.250 C 386.968 171.008,389.899 165.116,390.484 163.792 C 390.676 163.356,390.991 162.649,391.185 162.220 C 393.762 156.494,390.673 150.099,383.667 146.657 C 381.239 145.465,377.564 144.988,375.347 145.578 C 374.199 145.883,374.228 145.910,374.089 144.377 C 373.908 142.383,373.136 139.705,372.324 138.250 C 371.125 136.102,370.650 135.462,369.094 133.906 C 365.952 130.764,361.767 128.939,356.000 128.198 L 355.083 128.080 353.236 124.415 C 351.501 120.972,350.674 119.390,349.731 117.708 C 349.512 117.319,349.134 116.644,348.891 116.208 C 346.541 111.998,339.065 100.474,338.161 99.667 C 338.109 99.621,337.887 99.321,337.667 99.000 C 337.446 98.679,337.221 98.379,337.167 98.333 C 337.112 98.287,336.887 97.987,336.667 97.667 C 336.446 97.346,336.221 97.046,336.167 97.000 C 336.112 96.954,335.887 96.654,335.667 96.333 C 335.446 96.013,335.223 95.712,335.170 95.667 C 335.118 95.621,334.816 95.246,334.500 94.833 C 334.184 94.421,333.884 94.046,333.833 94.000 C 333.783 93.954,333.483 93.579,333.167 93.167 C 332.851 92.754,332.551 92.379,332.502 92.333 C 332.453 92.287,332.077 91.837,331.667 91.333 C 331.257 90.829,330.882 90.379,330.835 90.333 C 330.787 90.287,330.336 89.763,329.833 89.167 C 329.330 88.571,328.881 88.046,328.834 88.000 C 328.788 87.954,328.188 87.282,327.500 86.506 C 322.890 81.304,315.049 73.646,310.667 70.065 C 310.346 69.803,310.046 69.549,310.000 69.500 C 309.954 69.452,309.504 69.076,309.000 68.665 C 308.496 68.254,307.983 67.823,307.861 67.707 C 307.738 67.590,307.363 67.290,307.027 67.039 C 306.691 66.788,306.316 66.488,306.194 66.372 C 306.071 66.257,305.696 65.957,305.361 65.707 C 305.025 65.457,304.712 65.210,304.667 65.159 C 304.621 65.107,303.496 64.257,302.167 63.268 C 300.837 62.280,299.637 61.382,299.500 61.273 C 299.362 61.164,298.537 60.591,297.667 60.000 C 296.796 59.408,296.046 58.880,296.000 58.827 C 295.931 58.746,292.875 56.709,292.000 56.161 C 291.862 56.075,291.262 55.692,290.667 55.310 C 289.097 54.305,284.678 51.667,284.565 51.667 C 284.512 51.667,284.269 51.528,284.026 51.359 C 282.756 50.475,273.368 45.631,270.125 44.186 C 268.670 43.538,267.755 43.134,267.167 42.879 C 266.846 42.741,266.358 42.529,266.083 42.410 C 265.808 42.290,265.171 42.031,264.667 41.833 C 264.162 41.636,263.525 41.375,263.250 41.255 C 259.778 39.734,251.118 36.765,246.000 35.341 C 243.038 34.517,241.333 34.058,240.500 33.862 C 238.105 33.297,236.672 32.965,236.083 32.840 C 234.386 32.481,233.678 32.337,232.750 32.162 C 232.200 32.058,231.450 31.910,231.083 31.831 C 229.942 31.588,227.016 31.100,225.083 30.832 C 224.350 30.730,223.300 30.581,222.750 30.500 C 214.186 29.241,199.831 28.647,191.000 29.188 M274.201 53.073 C 275.339 53.531,281.717 56.892,284.750 58.633 C 299.163 66.905,312.622 78.021,324.445 91.417 C 328.117 95.577,329.785 97.741,334.919 105.000 C 336.832 107.704,339.030 110.775,339.805 111.825 C 341.453 114.057,342.041 115.146,341.969 115.830 L 341.917 116.320 341.211 116.003 C 340.823 115.828,340.131 115.335,339.672 114.906 C 338.763 114.055,338.709 114.077,338.630 115.333 C 338.588 116.007,338.538 116.089,338.141 116.134 C 337.374 116.223,334.016 111.564,332.757 108.665 C 329.416 100.967,317.804 93.242,310.284 93.715 C 304.745 94.063,300.837 98.413,300.832 104.235 C 300.830 107.074,298.506 115.845,296.677 119.917 C 296.512 120.283,296.211 121.058,296.008 121.638 C 295.805 122.218,294.533 125.405,293.180 128.721 C 291.828 132.037,290.284 135.875,289.750 137.250 C 288.558 140.321,288.618 140.256,288.252 138.882 C 285.128 127.151,275.109 120.192,262.972 121.321 C 258.090 121.775,255.070 123.257,251.313 127.039 L 249.840 128.521 249.129 128.033 C 246.473 126.212,241.847 123.873,239.682 123.258 C 236.790 122.436,235.650 121.586,234.586 119.461 C 233.337 116.964,233.996 116.511,237.706 117.315 C 242.329 118.317,242.246 117.368,237.333 113.043 C 234.507 110.555,232.690 108.119,232.674 106.798 C 232.655 105.197,235.012 105.486,240.417 107.748 C 245.888 110.037,247.666 110.436,248.172 109.490 C 248.535 108.811,248.061 108.022,246.173 106.165 C 243.840 103.869,243.776 103.538,245.466 102.544 C 246.158 102.137,246.465 102.074,248.083 102.000 L 249.917 101.917 249.969 101.287 C 250.041 100.418,249.465 99.247,248.023 97.333 C 245.541 94.039,246.659 93.679,252.969 95.740 C 259.737 97.951,260.304 97.372,256.338 92.303 C 253.588 88.790,253.308 87.167,255.450 87.167 C 256.950 87.167,259.955 88.499,266.843 92.216 C 272.273 95.146,273.667 95.636,273.667 94.614 C 273.667 92.355,272.199 90.350,268.368 87.377 C 265.321 85.011,263.542 82.884,263.697 81.792 C 263.768 81.288,264.784 81.223,267.028 81.580 C 268.956 81.886,269.333 81.826,269.333 81.214 C 269.333 80.531,265.789 77.159,262.248 74.473 C 257.922 71.191,257.638 70.924,257.700 70.199 C 257.857 68.361,260.824 69.412,268.667 74.083 C 278.984 80.229,280.531 80.124,273.269 73.774 C 271.109 71.885,270.005 71.001,264.167 66.492 C 258.469 62.092,253.041 57.048,253.518 56.596 C 253.554 56.562,259.039 59.239,265.707 62.544 C 277.563 68.421,277.839 68.547,278.166 68.251 C 279.154 67.356,278.170 66.028,274.583 63.417 C 266.008 57.173,265.000 56.232,265.000 54.471 C 265.000 53.445,265.383 53.405,267.284 54.233 C 269.570 55.228,270.330 55.117,271.170 53.667 C 271.900 52.407,272.334 52.322,274.201 53.073 M82.783 84.675 C 115.839 87.394,135.531 111.736,126.740 139.013 C 119.421 161.725,102.412 174.020,72.917 177.921 C 62.530 179.295,62.571 179.278,60.368 183.250 C 53.249 196.088,49.515 209.508,49.501 222.310 L 49.500 223.703 49.063 223.593 C 48.572 223.470,45.680 222.069,44.714 221.487 C 33.763 214.885,31.821 199.415,39.893 183.083 C 41.516 179.800,42.500 177.575,42.500 177.190 C 42.500 177.116,41.581 176.885,40.458 176.679 C 32.883 175.284,31.209 174.098,31.269 170.167 C 31.350 164.874,34.012 163.736,41.419 165.830 C 45.353 166.941,48.361 167.245,49.651 166.660 C 55.698 163.916,74.731 133.251,78.301 120.500 C 79.218 117.224,79.274 116.550,78.900 113.265 L 78.788 112.279 81.185 112.387 C 97.497 113.121,100.612 121.701,90.788 138.833 C 88.731 142.421,86.812 145.233,81.175 152.917 C 79.292 155.483,76.672 159.196,75.353 161.167 L 72.955 164.750 73.666 164.802 C 77.522 165.086,85.842 162.035,91.404 158.297 C 112.821 143.903,120.961 117.811,107.528 106.607 C 98.904 99.414,83.067 97.951,68.443 102.998 C 50.618 109.148,34.559 127.984,31.853 145.917 C 31.184 150.350,31.372 156.506,32.270 159.542 C 32.389 159.946,32.120 159.917,30.347 159.338 C 18.742 155.545,14.400 144.690,18.247 129.084 C 25.134 101.148,52.671 82.199,82.783 84.675 M312.681 102.680 C 316.745 103.998,322.531 108.372,324.042 111.267 C 326.295 115.587,324.059 123.743,314.227 147.058 C 306.283 165.897,303.187 175.505,303.170 181.375 C 303.166 182.670,303.179 182.678,304.560 182.161 C 309.738 180.224,316.370 171.301,319.510 162.046 C 322.848 152.209,327.545 146.088,335.395 141.346 C 347.402 134.094,362.924 135.649,364.755 144.288 C 367.085 155.282,350.651 175.520,338.123 177.086 L 337.167 177.205 337.170 178.811 C 337.184 186.704,342.551 188.802,351.461 184.399 C 359.625 180.365,365.261 174.037,373.993 159.100 C 377.089 153.805,377.421 153.561,379.794 154.826 C 383.061 156.567,383.210 157.288,381.193 161.621 C 369.364 187.027,352.880 199.424,337.000 194.857 C 330.711 193.049,325.148 187.718,321.281 179.796 C 319.928 177.024,320.040 177.146,319.546 177.910 C 317.910 180.435,313.039 185.799,310.583 187.778 C 304.402 192.761,298.581 193.139,293.400 188.894 C 289.869 186.000,287.044 179.309,287.656 175.289 C 287.771 174.534,287.839 173.605,287.808 173.223 L 287.750 172.530 285.667 174.457 C 271.235 187.804,252.068 193.264,239.837 187.513 C 238.506 186.887,237.258 186.337,237.063 186.292 C 236.678 186.202,236.925 185.619,232.171 197.833 C 229.103 205.716,229.481 204.908,228.823 204.974 C 225.586 205.299,218.649 202.824,216.445 200.557 C 214.589 198.648,214.973 194.131,217.747 185.250 C 218.234 183.692,218.983 181.254,219.413 179.833 C 219.842 178.412,221.543 173.200,223.191 168.250 C 229.638 148.893,231.965 140.091,232.282 133.862 C 232.411 131.312,232.479 131.235,234.465 131.380 C 237.896 131.631,243.178 134.162,246.537 137.165 C 248.279 138.723,248.238 138.603,248.333 142.417 L 248.417 145.750 252.250 140.089 C 258.681 130.591,260.281 129.453,266.446 129.989 C 276.035 130.821,280.990 138.148,280.431 150.667 C 280.142 157.154,279.326 160.430,275.942 168.708 C 274.714 171.710,273.750 174.167,273.799 174.167 C 274.331 174.167,280.036 169.281,282.583 166.644 C 289.517 159.466,292.837 154.217,295.755 145.819 C 296.902 142.517,298.746 137.806,301.913 130.083 C 306.923 117.867,309.292 110.015,309.409 105.240 C 309.483 102.248,310.029 101.820,312.681 102.680 M334.277 118.125 C 335.002 119.042,337.115 122.339,337.987 123.913 C 340.146 127.812,338.567 128.538,334.296 125.610 C 333.680 125.188,332.984 124.794,332.750 124.735 C 332.456 124.661,332.348 124.543,332.404 124.356 C 332.646 123.536,333.347 120.555,333.594 119.292 C 333.900 117.726,333.926 117.681,334.277 118.125 M332.089 128.209 C 332.228 129.220,331.955 129.928,331.294 130.270 C 330.490 130.686,330.511 130.479,331.604 127.171 C 331.733 126.780,331.959 127.263,332.089 128.209 M166.917 134.572 C 170.874 135.906,175.008 138.845,176.000 141.031 C 177.020 143.279,176.143 147.565,172.264 159.295 C 168.792 169.795,167.708 174.201,167.338 179.317 C 167.069 183.040,167.313 183.527,169.014 182.659 C 171.725 181.277,173.768 177.478,175.245 171.077 C 176.746 164.566,177.165 163.217,179.725 156.639 C 183.190 147.738,184.000 144.725,184.000 140.740 C 184.000 137.868,183.969 137.909,186.112 137.940 C 194.982 138.067,201.256 145.723,198.665 153.256 C 198.482 153.787,198.361 154.250,198.395 154.284 C 198.474 154.363,200.869 151.217,203.245 147.917 C 206.872 142.877,210.773 138.455,212.373 137.571 C 216.352 135.371,224.225 141.840,225.005 147.949 C 225.398 151.023,224.679 153.682,221.299 161.663 C 218.389 168.533,217.717 170.866,217.905 173.433 C 218.224 177.773,214.944 178.312,208.331 175.007 C 202.104 171.894,201.808 170.877,204.671 162.417 C 205.641 159.551,206.253 157.364,206.122 157.233 C 206.088 157.199,205.835 157.489,205.559 157.878 C 205.283 158.266,204.061 159.971,202.842 161.667 C 197.925 168.510,193.505 175.654,190.623 181.417 C 188.159 186.343,188.057 187.021,189.253 190.500 C 190.497 194.118,190.303 195.341,188.410 195.818 C 184.504 196.801,178.384 192.875,175.899 187.792 C 175.328 186.625,175.412 186.626,174.131 187.770 C 170.823 190.729,168.923 191.667,166.237 191.667 C 160.061 191.667,152.602 183.935,152.297 177.216 C 152.238 175.922,152.587 175.494,148.401 182.000 C 140.344 194.524,137.598 196.234,131.176 192.724 C 124.092 188.853,121.216 182.443,122.424 173.217 C 122.948 169.214,123.691 166.473,126.837 156.917 C 130.493 145.817,131.235 142.550,130.806 139.458 C 130.532 137.487,130.651 137.175,131.835 136.774 C 135.589 135.504,143.297 138.264,145.901 141.812 C 148.400 145.216,147.403 150.880,141.218 168.417 C 137.469 179.045,136.801 181.156,135.921 185.143 C 135.501 187.045,135.499 187.333,135.906 187.333 C 137.102 187.333,148.355 168.424,154.150 156.676 C 158.393 148.075,161.254 140.286,161.440 136.833 C 161.560 134.603,161.618 134.381,162.130 134.181 C 162.931 133.869,165.440 134.074,166.917 134.572 M261.892 140.125 C 258.696 142.982,253.912 150.481,249.159 160.083 C 247.244 163.953,240.266 178.849,240.059 179.512 C 240.012 179.660,240.271 180.146,240.652 180.628 C 247.035 188.703,260.344 169.000,263.254 147.167 C 264.092 140.880,263.643 138.559,261.892 140.125 M355.107 144.931 C 350.060 146.152,344.167 154.024,340.603 164.304 C 339.374 167.850,339.635 168.312,342.048 166.855 C 348.767 162.796,354.595 155.901,356.739 149.473 C 358.138 145.279,357.780 144.284,355.107 144.931 M201.976 181.735 C 202.924 182.333,206.085 183.888,207.417 184.410 C 208.930 185.003,208.866 184.835,208.313 186.750 C 207.643 189.073,207.027 192.225,206.787 194.563 L 206.583 196.543 205.917 195.574 C 204.686 193.785,202.549 192.571,200.256 192.358 L 199.095 192.250 198.954 191.583 C 198.877 191.217,198.578 190.139,198.289 189.189 L 197.765 187.461 198.714 185.606 C 201.036 181.061,200.992 181.114,201.976 181.735 M152.429 194.816 C 153.765 196.037,155.390 197.212,156.988 198.112 C 158.396 198.905,158.408 198.917,157.833 198.968 C 154.260 199.284,150.177 201.797,147.487 205.335 C 146.428 206.728,146.685 206.711,145.167 205.486 C 144.479 204.931,143.262 204.089,142.462 203.614 C 140.716 202.577,140.737 202.667,142.121 202.099 C 144.672 201.051,147.564 198.683,150.165 195.513 C 151.629 193.728,151.338 193.818,152.429 194.816 M334.353 195.504 C 336.460 196.209,339.287 197.963,342.039 200.273 C 347.345 204.726,347.367 207.871,342.183 221.461 C 340.391 226.159,339.589 228.478,339.713 228.601 C 339.828 228.717,342.036 226.387,343.836 224.250 C 351.059 215.675,354.222 214.708,358.878 219.649 C 365.595 226.777,365.543 229.221,358.333 245.333 C 353.397 256.364,351.275 263.146,351.529 267.083 C 351.642 268.830,353.237 268.074,356.512 264.721 C 361.574 259.540,365.562 253.652,373.564 239.543 C 376.785 233.863,376.686 233.979,378.016 234.338 C 380.879 235.109,382.499 236.966,381.920 238.814 C 379.243 247.355,364.692 267.946,357.192 273.805 C 347.195 281.617,335.544 269.445,338.711 254.498 C 339.324 251.605,340.099 249.013,341.868 243.940 C 344.073 237.619,344.603 235.816,344.099 236.344 C 340.300 240.326,330.805 253.331,327.679 258.833 C 325.251 263.108,325.055 264.154,326.084 267.333 C 327.427 271.483,327.160 272.365,324.529 272.471 C 319.780 272.661,315.507 269.071,312.280 262.177 L 311.583 260.688 309.107 262.669 C 303.955 266.791,301.129 268.308,296.967 269.186 C 287.505 271.181,278.327 265.886,273.018 255.370 C 272.371 254.087,272.612 253.963,270.901 256.458 C 263.104 267.833,257.445 270.155,250.707 264.746 C 246.808 261.616,244.964 257.424,244.954 251.667 C 244.946 246.918,245.471 244.412,249.070 232.018 C 249.586 230.241,249.981 228.759,249.947 228.725 C 249.913 228.690,249.288 229.432,248.558 230.373 C 242.628 238.016,234.585 251.342,233.078 256.020 C 232.423 258.055,232.460 258.840,233.333 261.417 C 234.774 265.667,234.329 266.663,230.989 266.666 C 227.227 266.669,223.256 263.874,219.976 258.917 C 219.430 258.092,218.957 257.417,218.924 257.417 C 218.892 257.417,218.244 258.279,217.486 259.333 C 211.385 267.812,205.329 269.004,199.239 262.925 C 196.178 259.870,194.140 255.896,193.611 251.953 L 193.406 250.423 191.346 253.836 C 182.727 268.119,179.100 270.349,172.595 265.365 C 164.780 259.378,163.355 251.951,167.342 237.996 C 167.696 236.756,169.040 232.556,170.329 228.663 C 173.461 219.203,173.996 217.086,174.150 213.536 L 174.268 210.822 174.804 210.286 C 176.737 208.355,184.962 211.361,187.795 215.034 C 190.780 218.902,190.108 223.147,183.635 241.333 C 180.230 250.899,178.599 256.202,177.932 259.875 C 177.321 263.236,184.281 252.745,191.503 239.417 C 198.916 225.737,201.921 218.728,203.335 211.824 C 203.913 209.006,203.912 209.006,205.015 209.003 C 208.853 208.990,215.059 212.839,216.966 216.417 C 217.996 218.348,217.267 221.728,213.174 234.000 C 209.518 244.965,208.377 249.310,207.813 254.434 C 206.878 262.914,212.687 256.880,218.259 243.583 C 223.313 231.524,228.011 216.324,228.073 211.833 C 228.112 208.970,228.328 208.664,230.303 208.670 C 235.606 208.686,242.242 213.476,243.177 217.963 C 243.464 219.340,243.272 221.589,242.684 223.745 C 242.409 224.751,242.200 225.588,242.217 225.604 C 242.235 225.621,244.559 222.614,247.381 218.922 C 255.988 207.660,257.296 206.647,260.871 208.472 C 264.359 210.252,267.490 213.642,268.619 216.861 C 269.915 220.554,269.092 224.152,264.034 236.917 C 259.171 249.187,257.566 255.406,258.525 258.250 C 259.435 260.948,264.947 254.333,269.375 245.228 L 270.250 243.429 270.352 241.006 C 270.925 227.371,282.456 213.788,296.019 210.771 C 307.954 208.117,313.557 212.074,313.574 223.167 C 313.585 230.681,312.215 233.322,308.962 232.056 C 306.385 231.054,305.906 229.847,306.707 226.372 C 307.343 223.618,307.179 217.557,306.458 217.102 C 306.080 216.864,303.863 217.520,302.687 218.218 C 292.878 224.040,283.676 253.563,289.886 259.287 C 294.384 263.433,308.048 255.974,312.756 246.801 C 313.364 245.616,314.222 243.383,315.317 240.135 C 317.272 234.334,317.987 232.518,322.138 222.810 C 328.555 207.802,330.522 202.082,330.820 197.564 C 331.015 194.598,331.244 194.464,334.353 195.504 M98.979 195.429 C 106.026 196.472,112.064 199.225,114.148 202.344 C 119.068 209.713,111.108 236.011,101.175 245.208 C 97.343 248.756,91.994 249.183,89.274 246.158 C 86.804 243.411,87.450 241.082,91.052 239.742 C 93.102 238.980,93.641 238.666,94.673 237.633 C 99.486 232.820,104.831 217.680,104.833 208.852 L 104.833 208.121 103.708 208.235 C 83.704 210.269,61.029 243.427,60.218 271.833 C 59.771 287.498,65.697 292.822,78.583 288.333 C 89.540 284.516,98.506 274.986,106.585 258.568 C 109.462 252.722,110.299 251.832,112.735 252.033 C 116.387 252.336,117.010 256.827,114.187 262.500 C 107.998 274.937,103.300 281.934,97.061 288.008 C 89.547 295.322,82.316 298.702,72.445 299.512 C 46.208 301.667,36.277 271.130,52.168 237.167 C 63.084 213.837,79.143 197.428,93.167 195.276 C 94.246 195.110,97.384 195.193,98.979 195.429 M249.109 198.614 C 252.987 198.709,255.236 198.578,258.417 198.073 C 260.423 197.754,260.333 197.736,260.333 198.458 L 260.333 199.083 258.542 199.086 C 254.769 199.093,251.990 200.525,248.083 204.478 C 245.958 206.628,246.206 206.534,245.110 205.603 C 244.144 204.783,241.744 203.190,240.787 202.734 C 240.440 202.569,240.189 202.355,240.229 202.258 C 240.270 202.162,240.651 201.189,241.077 200.095 C 241.502 199.001,241.881 198.058,241.918 197.999 C 241.954 197.939,242.719 198.032,243.617 198.205 C 244.784 198.430,246.352 198.547,249.109 198.614 M174.707 200.000 C 175.890 200.943,175.912 200.873,174.320 201.202 C 172.880 201.500,171.286 202.173,170.122 202.973 L 169.404 203.468 168.410 202.720 C 167.864 202.310,166.986 201.736,166.460 201.445 C 165.222 200.761,165.226 200.756,167.064 200.714 C 168.945 200.671,170.839 200.301,172.417 199.670 C 173.802 199.116,173.554 199.081,174.707 200.000 M193.402 204.813 C 193.899 205.491,194.591 206.146,195.377 206.684 C 195.460 206.741,195.443 207.245,195.336 207.850 C 195.013 209.695,195.138 209.683,193.444 208.044 C 192.604 207.231,191.372 206.184,190.707 205.717 L 189.496 204.868 190.707 204.597 C 191.372 204.448,192.029 204.254,192.167 204.165 C 192.605 203.884,192.792 203.982,193.402 204.813 M160.819 208.427 C 165.856 210.949,170.201 216.986,169.492 220.477 C 168.934 223.218,167.654 226.949,165.020 233.515 C 162.468 239.874,162.000 241.555,162.000 244.363 C 162.000 248.823,159.420 249.226,152.583 245.835 C 146.347 242.742,146.038 241.811,148.660 233.997 C 149.682 230.952,150.333 228.668,150.333 228.126 C 150.333 227.144,140.004 242.835,136.537 249.083 C 132.522 256.321,132.132 257.908,133.445 261.680 C 134.978 266.081,134.230 267.223,130.180 266.668 C 120.518 265.346,115.891 254.142,119.442 240.667 C 120.062 238.315,120.962 235.711,123.331 229.417 C 126.500 220.994,127.498 217.718,127.823 214.658 C 127.916 213.792,128.073 212.305,128.174 211.355 C 128.427 208.964,128.464 208.893,129.503 208.750 C 132.838 208.291,137.798 210.411,140.811 213.582 C 143.307 216.210,143.802 218.394,142.926 222.913 C 142.682 224.174,142.505 225.227,142.533 225.254 C 142.561 225.281,145.358 221.813,148.750 217.547 C 157.272 206.827,157.412 206.722,160.819 208.427 M149.752 256.425 C 151.219 257.267,153.057 258.274,153.835 258.663 C 155.491 259.490,155.761 259.706,156.184 260.535 C 156.935 262.006,156.535 262.573,154.861 262.408 C 153.381 262.262,152.964 262.662,153.326 263.883 C 153.659 265.004,154.631 265.754,157.769 267.309 C 162.263 269.536,164.003 270.813,163.997 271.881 C 163.992 272.994,163.462 273.182,161.193 272.875 C 156.681 272.265,155.594 272.564,155.700 274.388 C 155.766 275.511,156.152 275.767,159.260 276.750 C 162.769 277.861,164.544 279.454,165.017 281.917 C 165.322 283.507,165.122 283.566,161.686 282.908 C 156.967 282.004,156.933 282.800,161.516 286.833 C 167.189 291.826,168.252 295.189,163.865 294.269 C 162.734 294.032,161.658 293.628,156.717 291.587 C 150.661 289.086,149.117 290.098,153.014 294.014 C 154.037 295.042,154.877 296.031,154.940 296.283 C 155.181 297.244,153.257 298.167,151.013 298.167 C 148.515 298.167,148.514 299.525,151.011 302.513 C 153.907 305.978,152.386 306.545,146.000 304.383 C 139.685 302.245,139.061 302.895,142.758 307.756 C 147.996 314.643,144.263 314.758,132.479 308.072 C 130.429 306.908,127.338 305.391,126.536 305.155 C 125.560 304.867,125.427 305.032,125.653 306.253 C 126.072 308.518,127.118 309.867,130.667 312.720 C 133.492 314.991,135.039 316.571,135.423 317.578 L 135.730 318.379 135.346 318.690 C 134.883 319.065,134.723 319.069,133.056 318.750 C 131.368 318.427,130.020 318.420,129.899 318.735 C 129.628 319.442,131.943 321.758,136.328 325.167 C 141.581 329.251,142.011 329.672,141.566 330.308 C 140.683 331.569,136.721 330.021,129.894 325.748 C 124.824 322.575,121.629 321.053,121.267 321.639 C 120.972 322.116,126.888 327.367,133.415 332.423 C 141.145 338.411,145.667 342.557,145.667 343.658 C 145.667 344.049,144.920 343.734,140.599 341.522 C 120.348 331.154,120.667 331.298,120.667 332.517 C 120.667 333.791,121.494 334.574,127.083 338.587 C 132.949 342.799,134.333 344.193,134.333 345.893 C 134.333 346.867,133.733 346.861,131.750 345.867 C 129.676 344.829,129.220 344.960,127.618 347.057 C 126.919 347.972,126.687 347.909,121.892 345.514 C 105.281 337.217,90.222 325.725,76.887 311.168 C 74.461 308.520,74.370 308.341,75.448 308.336 C 76.427 308.331,80.728 307.516,82.833 306.936 C 96.542 303.161,109.112 291.609,118.311 274.333 C 118.872 273.279,119.397 272.316,119.477 272.192 C 119.591 272.017,119.953 272.167,121.132 272.878 C 126.825 276.310,134.182 276.767,138.619 273.965 C 142.993 271.203,144.352 266.188,142.394 260.030 L 141.954 258.644 142.352 257.781 C 142.571 257.307,143.150 256.148,143.639 255.205 L 144.528 253.492 145.806 254.193 C 146.508 254.578,148.284 255.583,149.752 256.425 M88.127 257.437 C 88.378 257.620,88.969 258.354,89.441 259.068 C 91.262 261.827,92.801 262.781,94.429 262.162 C 94.677 262.068,94.912 262.024,94.953 262.064 C 95.038 262.150,93.197 265.025,91.875 266.870 L 90.953 268.157 90.435 267.341 C 89.131 265.289,87.460 262.987,86.527 261.959 C 84.612 259.848,84.107 257.920,85.294 257.251 C 85.929 256.894,87.525 256.998,88.127 257.437 M76.583 265.405 C 76.858 265.706,77.442 266.414,77.880 266.977 C 78.881 268.263,80.791 269.864,81.248 269.798 C 81.562 269.753,81.580 269.647,81.528 268.109 C 81.383 263.803,83.610 264.039,87.192 268.710 C 87.738 269.421,88.342 270.150,88.534 270.329 L 88.884 270.655 87.918 271.755 C 84.625 275.507,79.725 278.854,75.413 280.298 C 72.402 281.306,70.585 281.432,70.216 280.657 C 69.460 279.072,68.875 273.626,69.418 273.229 C 70.316 272.572,72.132 273.077,73.821 274.453 C 75.011 275.422,75.877 275.850,76.725 275.887 C 77.977 275.941,77.739 275.237,75.237 271.485 C 73.106 268.289,72.705 267.024,73.399 265.696 C 74.000 264.545,75.661 264.393,76.583 265.405 M239.306 270.979 C 244.604 272.628,248.166 277.703,247.343 282.429 C 245.666 292.064,237.356 302.356,230.750 302.980 L 229.583 303.091 231.750 304.390 C 240.654 309.728,246.752 311.211,248.305 308.417 C 248.458 308.142,248.600 307.887,248.621 307.851 C 248.827 307.494,249.191 308.351,249.126 309.036 C 248.852 311.886,245.501 315.161,242.854 315.165 C 240.013 315.169,231.924 311.152,226.504 307.044 L 225.757 306.478 225.630 306.864 C 225.560 307.076,225.017 309.387,224.423 312.000 C 223.110 317.770,222.878 318.022,219.729 317.086 C 217.800 316.514,217.803 316.890,219.671 308.606 L 221.043 302.517 220.361 301.741 C 219.064 300.268,218.560 297.640,219.332 296.375 C 219.764 295.666,219.774 295.669,221.017 296.827 C 221.911 297.659,222.103 297.774,222.206 297.535 C 222.338 297.230,224.167 290.416,224.167 290.232 C 224.167 290.171,224.017 290.312,223.834 290.545 C 222.776 291.890,218.763 291.979,216.917 290.698 C 214.005 288.678,215.280 284.861,220.657 279.495 C 227.095 273.070,234.768 269.566,239.306 270.979 M338.440 274.154 C 339.874 274.805,341.313 276.581,341.027 277.347 C 340.966 277.509,340.330 278.024,339.613 278.492 C 329.485 285.099,318.758 310.731,325.421 312.403 C 326.483 312.669,325.111 313.266,323.793 313.110 C 319.917 312.651,317.995 307.302,319.560 301.335 C 320.067 299.404,320.094 299.430,319.025 300.831 C 316.254 304.465,314.736 305.261,312.325 304.346 C 309.742 303.364,309.218 301.853,310.237 298.319 L 310.601 297.054 309.414 296.854 C 306.379 296.345,305.667 295.591,305.667 292.888 L 305.667 291.094 304.653 292.089 C 301.481 295.202,298.888 299.405,297.323 303.970 C 296.424 306.591,295.961 306.828,293.836 305.751 C 292.171 304.908,292.077 304.457,292.897 301.288 L 293.448 299.160 293.016 299.066 C 292.778 299.015,292.366 298.904,292.100 298.820 C 291.246 298.549,291.088 298.629,290.629 299.564 C 287.578 305.785,284.187 307.074,279.290 303.875 C 277.680 302.823,276.974 301.664,276.795 299.777 C 276.752 299.326,276.696 299.367,275.583 300.661 C 271.860 304.991,268.921 305.818,264.562 303.763 C 261.576 302.354,260.791 300.329,261.726 296.448 C 261.877 295.824,262.000 295.263,262.000 295.202 C 262.000 295.142,261.653 295.653,261.228 296.338 C 258.601 300.575,253.375 305.678,251.179 306.148 C 248.603 306.701,244.795 304.488,244.108 302.040 C 242.745 297.184,246.844 286.857,251.637 283.072 C 253.566 281.548,254.807 281.564,257.974 283.154 C 260.651 284.497,260.822 285.088,259.596 288.750 C 257.749 294.269,254.483 297.161,251.005 296.358 C 250.104 296.150,250.235 296.012,249.832 297.588 C 248.415 303.127,250.070 303.988,254.308 299.917 C 256.947 297.381,259.689 293.768,261.099 290.969 C 261.837 289.503,262.455 289.288,263.351 290.185 C 263.540 290.373,263.713 290.503,263.736 290.472 C 263.758 290.442,264.064 289.892,264.414 289.250 C 267.257 284.043,270.431 281.736,273.117 282.924 L 274.076 283.349 274.413 282.884 C 275.929 280.795,277.528 280.797,279.459 282.892 C 280.591 284.119,280.572 284.296,279.144 285.795 C 277.049 287.994,275.741 290.311,275.533 292.193 C 275.398 293.417,274.963 293.619,273.589 293.094 C 271.479 292.289,270.999 290.351,272.195 287.469 C 273.209 285.023,271.494 286.873,270.107 289.719 C 267.213 295.657,266.808 301.345,269.307 300.940 C 271.592 300.569,273.620 298.531,278.754 291.446 C 280.942 288.425,280.982 288.389,281.750 288.686 C 282.003 288.783,282.031 288.526,281.909 287.229 C 281.583 283.745,283.885 282.197,287.832 283.248 C 292.677 284.537,294.170 288.072,292.604 294.549 C 292.154 296.410,292.156 296.413,293.535 296.603 L 294.251 296.701 294.812 295.142 C 296.989 289.097,301.623 280.779,303.005 280.438 C 304.188 280.145,306.222 281.439,306.222 282.484 C 306.222 282.782,305.859 283.588,305.300 284.530 C 304.078 286.588,302.949 288.667,303.053 288.667 C 303.099 288.667,303.819 287.812,304.653 286.767 C 306.622 284.301,306.492 284.346,308.847 285.305 C 311.718 286.474,311.702 286.444,311.083 289.615 C 310.016 295.078,310.377 297.070,311.875 293.985 C 315.604 286.304,320.248 283.110,324.517 285.292 C 325.783 285.938,325.918 285.975,326.066 285.708 C 326.968 284.089,330.083 279.833,332.041 277.544 C 334.955 274.138,336.547 273.294,338.440 274.154 M237.333 274.443 C 234.766 275.133,229.662 278.157,231.042 278.170 C 231.561 278.175,232.686 278.715,233.065 279.140 C 233.376 279.490,233.367 279.532,232.371 282.539 C 231.352 285.614,230.829 287.406,228.674 295.215 C 227.346 300.029,227.347 299.909,228.658 299.790 C 234.520 299.258,243.204 283.298,241.236 276.673 C 240.549 274.358,239.622 273.828,237.333 274.443 M224.957 282.481 C 220.711 286.876,219.418 289.763,221.466 290.277 C 221.820 290.366,224.154 290.096,224.260 289.953 C 224.358 289.821,226.826 280.770,226.777 280.722 C 226.744 280.688,225.925 281.480,224.957 282.481 M347.495 282.747 C 349.381 283.723,350.200 286.197,348.890 286.962 C 345.393 289.007,341.979 292.676,341.711 294.678 C 341.600 295.507,341.284 295.530,340.307 294.785 C 338.611 293.491,338.387 292.214,339.485 290.092 C 340.193 288.724,340.099 288.515,339.025 289.071 C 336.748 290.248,335.183 294.698,336.099 297.387 C 336.461 298.450,336.442 298.449,338.284 297.526 C 344.487 294.420,347.648 293.511,349.377 294.338 C 351.126 295.174,351.641 296.081,350.259 295.892 C 348.682 295.676,343.341 297.677,339.226 300.026 L 338.035 300.706 338.643 301.978 C 341.354 307.656,333.493 314.289,326.582 312.154 C 321.183 310.487,323.732 305.429,332.585 300.243 C 332.855 300.085,332.792 299.920,331.882 298.410 C 329.141 293.856,329.580 289.935,333.184 286.782 C 335.857 284.444,337.620 284.316,340.503 286.252 L 341.558 286.961 342.737 285.761 C 343.934 284.544,345.507 283.270,346.417 282.782 C 347.033 282.451,346.928 282.454,347.495 282.747 M254.982 287.182 C 253.540 288.945,250.947 293.336,251.200 293.589 C 252.074 294.463,254.381 291.596,255.254 288.549 C 255.831 286.538,255.768 286.221,254.982 287.182 M287.237 287.000 C 286.571 288.218,287.216 293.885,287.890 292.743 C 288.200 292.219,288.143 287.726,287.817 287.000 L 287.555 286.417 287.237 287.000 M321.499 288.964 C 318.490 290.876,313.461 300.000,315.415 300.000 C 316.216 300.000,321.721 293.028,323.155 290.196 C 323.949 288.627,323.064 287.969,321.499 288.964 M283.605 293.529 C 282.528 295.175,281.256 301.427,281.817 302.313 C 282.237 302.975,284.719 300.427,285.947 298.072 L 286.810 296.417 285.796 295.507 C 285.238 295.006,284.574 294.269,284.320 293.869 L 283.858 293.141 283.605 293.529 M332.509 304.346 C 330.103 306.159,327.850 308.572,328.219 308.941 C 329.014 309.736,333.709 305.679,334.081 303.875 C 334.236 303.124,334.062 303.176,332.509 304.346 " stroke="none" fill="#040404" fill-rule="evenodd"></path><path id="path2" d="M266.333 57.083 C 266.644 57.404,266.936 57.667,266.982 57.667 C 267.028 57.667,266.811 57.404,266.500 57.083 C 266.189 56.762,265.897 56.500,265.851 56.500 C 265.805 56.500,266.022 56.762,266.333 57.083 M267.493 78.875 C 268.184 79.611,268.333 79.743,268.333 79.618 C 268.333 79.591,267.977 79.235,267.542 78.826 L 266.750 78.083 267.493 78.875 M316.917 83.500 C 317.830 84.417,318.615 85.167,318.660 85.167 C 318.706 85.167,317.997 84.417,317.083 83.500 C 316.170 82.583,315.385 81.833,315.340 81.833 C 315.294 81.833,316.003 82.583,316.917 83.500 M271.250 89.833 C 271.608 90.200,271.938 90.500,271.984 90.500 C 272.030 90.500,271.775 90.200,271.417 89.833 C 271.059 89.467,270.728 89.167,270.682 89.167 C 270.637 89.167,270.892 89.467,271.250 89.833 M300.718 104.750 C 300.719 105.300,300.750 105.505,300.787 105.205 C 300.825 104.906,300.824 104.456,300.786 104.205 C 300.748 103.955,300.717 104.200,300.718 104.750 M309.372 104.500 C 309.372 104.821,309.406 104.952,309.448 104.792 C 309.490 104.631,309.490 104.369,309.448 104.208 C 309.406 104.048,309.372 104.179,309.372 104.500 M245.167 105.250 C 245.478 105.571,245.770 105.833,245.815 105.833 C 245.861 105.833,245.644 105.571,245.333 105.250 C 245.022 104.929,244.730 104.667,244.685 104.667 C 244.639 104.667,244.856 104.929,245.167 105.250 M235.667 111.583 C 235.978 111.904,236.270 112.167,236.315 112.167 C 236.361 112.167,236.144 111.904,235.833 111.583 C 235.522 111.263,235.230 111.000,235.185 111.000 C 235.139 111.000,235.356 111.263,235.667 111.583 M81.294 112.451 C 81.501 112.491,81.801 112.490,81.960 112.448 C 82.120 112.406,81.950 112.374,81.583 112.375 C 81.217 112.377,81.086 112.411,81.294 112.451 M324.888 114.917 C 324.889 115.558,324.919 115.800,324.955 115.455 C 324.991 115.109,324.990 114.584,324.954 114.288 C 324.917 113.992,324.887 114.275,324.888 114.917 M263.042 121.282 C 263.202 121.323,263.465 121.323,263.625 121.282 C 263.785 121.240,263.654 121.205,263.333 121.205 C 263.012 121.205,262.881 121.240,263.042 121.282 M266.375 121.282 C 266.535 121.323,266.798 121.323,266.958 121.282 C 267.119 121.240,266.987 121.205,266.667 121.205 C 266.346 121.205,266.215 121.240,266.375 121.282 M128.888 125.750 C 128.889 126.392,128.919 126.634,128.955 126.288 C 128.991 125.942,128.990 125.417,128.954 125.121 C 128.917 124.825,128.887 125.108,128.888 125.750 M281.917 127.667 C 282.368 128.125,282.775 128.500,282.821 128.500 C 282.867 128.500,282.535 128.125,282.083 127.667 C 281.632 127.208,281.225 126.833,281.179 126.833 C 281.133 126.833,281.465 127.208,281.917 127.667 M250.206 128.005 C 249.906 128.277,249.724 128.500,249.800 128.500 C 249.875 128.500,250.153 128.275,250.417 128.000 C 251.029 127.361,250.911 127.363,250.206 128.005 M264.208 129.953 C 264.460 129.991,264.873 129.991,265.125 129.953 C 265.377 129.915,265.171 129.883,264.667 129.883 C 264.162 129.883,263.956 129.915,264.208 129.953 M161.553 135.833 C 161.553 136.429,161.584 136.673,161.621 136.375 C 161.658 136.077,161.658 135.590,161.621 135.292 C 161.584 134.994,161.553 135.237,161.553 135.833 M16.875 138.417 C 16.877 138.783,16.911 138.914,16.951 138.706 C 16.991 138.499,16.990 138.199,16.948 138.040 C 16.906 137.880,16.874 138.050,16.875 138.417 M185.375 137.953 C 185.627 137.991,186.040 137.991,186.292 137.953 C 186.544 137.915,186.338 137.883,185.833 137.883 C 185.329 137.883,185.123 137.915,185.375 137.953 M362.500 140.250 C 362.811 140.571,363.103 140.833,363.149 140.833 C 363.195 140.833,362.978 140.571,362.667 140.250 C 362.356 139.929,362.064 139.667,362.018 139.667 C 361.972 139.667,362.189 139.929,362.500 140.250 M16.872 140.333 C 16.872 140.654,16.906 140.785,16.948 140.625 C 16.990 140.465,16.990 140.202,16.948 140.042 C 16.906 139.881,16.872 140.012,16.872 140.333 M263.718 141.250 C 263.719 141.800,263.750 142.005,263.787 141.705 C 263.825 141.406,263.824 140.956,263.786 140.705 C 263.748 140.455,263.717 140.700,263.718 141.250 M144.667 140.552 C 144.667 140.581,144.910 140.825,145.208 141.094 L 145.750 141.583 145.260 141.042 C 144.804 140.537,144.667 140.423,144.667 140.552 M349.742 148.208 L 349.083 148.917 349.792 148.258 C 350.450 147.645,350.577 147.500,350.450 147.500 C 350.423 147.500,350.105 147.819,349.742 148.208 M199.220 149.667 C 199.220 150.262,199.250 150.506,199.287 150.208 C 199.324 149.910,199.324 149.423,199.287 149.125 C 199.250 148.827,199.220 149.071,199.220 149.667 M225.045 149.333 C 225.045 149.746,225.078 149.915,225.118 149.708 C 225.157 149.502,225.157 149.165,225.118 148.958 C 225.078 148.752,225.045 148.921,225.045 149.333 M114.573 159.875 L 114.083 160.417 114.625 159.927 C 115.130 159.471,115.243 159.333,115.115 159.333 C 115.086 159.333,114.842 159.577,114.573 159.875 M112.740 161.708 L 112.250 162.250 112.792 161.760 C 113.090 161.491,113.333 161.248,113.333 161.219 C 113.333 161.090,113.196 161.203,112.740 161.708 M51.995 164.792 L 50.917 165.917 52.042 164.838 C 53.087 163.836,53.243 163.667,53.120 163.667 C 53.095 163.667,52.588 164.173,51.995 164.792 M35.542 164.782 C 35.702 164.823,35.965 164.823,36.125 164.782 C 36.285 164.740,36.154 164.705,35.833 164.705 C 35.512 164.705,35.381 164.740,35.542 164.782 M202.872 169.500 C 202.872 169.821,202.906 169.952,202.948 169.792 C 202.990 169.631,202.990 169.369,202.948 169.208 C 202.906 169.048,202.872 169.179,202.872 169.500 M286.909 173.208 L 286.250 173.917 286.958 173.258 C 287.617 172.645,287.743 172.500,287.617 172.500 C 287.590 172.500,287.271 172.819,286.909 173.208 M217.881 174.417 C 217.882 174.875,217.915 175.043,217.953 174.789 C 217.991 174.536,217.990 174.161,217.951 173.956 C 217.911 173.751,217.880 173.958,217.881 174.417 M152.119 176.125 C 152.083 176.194,152.110 176.438,152.179 176.667 C 152.294 177.044,152.304 177.032,152.284 176.542 C 152.262 175.982,152.234 175.911,152.119 176.125 M309.906 178.208 L 309.417 178.750 309.958 178.260 C 310.463 177.804,310.577 177.667,310.448 177.667 C 310.419 177.667,310.175 177.910,309.906 178.208 M167.214 179.917 C 167.216 180.375,167.248 180.543,167.286 180.289 C 167.325 180.036,167.324 179.661,167.284 179.456 C 167.244 179.251,167.213 179.458,167.214 179.917 M167.230 182.417 C 167.248 183.023,167.291 183.085,167.710 183.104 C 168.113 183.121,168.119 183.115,167.762 183.052 C 167.431 182.994,167.339 182.861,167.281 182.365 L 167.210 181.750 167.230 182.417 M292.667 188.250 C 292.978 188.571,293.270 188.833,293.315 188.833 C 293.361 188.833,293.144 188.571,292.833 188.250 C 292.522 187.929,292.230 187.667,292.185 187.667 C 292.139 187.667,292.356 187.929,292.667 188.250 M126.333 189.052 C 126.333 189.081,126.577 189.325,126.875 189.594 L 127.417 190.083 126.927 189.542 C 126.471 189.037,126.333 188.923,126.333 189.052 M247.375 189.615 C 247.535 189.657,247.798 189.657,247.958 189.615 C 248.119 189.573,247.987 189.539,247.667 189.539 C 247.346 189.539,247.215 189.573,247.375 189.615 M252.294 189.618 C 252.501 189.658,252.801 189.656,252.960 189.615 C 253.120 189.573,252.950 189.540,252.583 189.542 C 252.217 189.544,252.086 189.578,252.294 189.618 M141.240 191.708 L 140.750 192.250 141.292 191.760 C 141.590 191.491,141.833 191.248,141.833 191.219 C 141.833 191.090,141.696 191.203,141.240 191.708 M215.372 195.333 C 215.372 195.654,215.406 195.785,215.448 195.625 C 215.490 195.465,215.490 195.202,215.448 195.042 C 215.406 194.881,215.372 195.012,215.372 195.333 M186.628 195.954 C 186.928 195.991,187.378 195.990,187.628 195.952 C 187.878 195.914,187.633 195.884,187.083 195.885 C 186.533 195.886,186.328 195.917,186.628 195.954 M330.879 196.667 C 330.879 197.079,330.911 197.248,330.951 197.042 C 330.991 196.835,330.991 196.498,330.951 196.292 C 330.911 196.085,330.879 196.254,330.879 196.667 M147.742 198.208 L 147.083 198.917 147.792 198.258 C 148.450 197.645,148.577 197.500,148.450 197.500 C 148.423 197.500,148.105 197.819,147.742 198.208 M249.292 198.790 C 249.865 198.823,250.802 198.823,251.375 198.790 C 251.948 198.758,251.479 198.731,250.333 198.731 C 249.188 198.731,248.719 198.758,249.292 198.790 M343.250 201.500 C 343.608 201.867,343.938 202.167,343.984 202.167 C 344.030 202.167,343.775 201.867,343.417 201.500 C 343.059 201.133,342.728 200.833,342.682 200.833 C 342.637 200.833,342.892 201.133,343.250 201.500 M249.073 203.375 L 248.583 203.917 249.125 203.427 C 249.630 202.971,249.743 202.833,249.615 202.833 C 249.586 202.833,249.342 203.077,249.073 203.375 M148.906 203.542 L 148.417 204.083 148.958 203.594 C 149.256 203.325,149.500 203.081,149.500 203.052 C 149.500 202.923,149.362 203.037,148.906 203.542 M247.409 205.042 L 246.750 205.750 247.458 205.091 C 248.117 204.478,248.243 204.333,248.117 204.333 C 248.090 204.333,247.771 204.652,247.409 205.042 M258.208 207.782 C 258.369 207.823,258.631 207.823,258.792 207.782 C 258.952 207.740,258.821 207.705,258.500 207.705 C 258.179 207.705,258.048 207.740,258.208 207.782 M129.961 208.787 C 130.261 208.825,130.711 208.824,130.961 208.786 C 131.212 208.748,130.967 208.717,130.417 208.718 C 129.867 208.719,129.662 208.750,129.961 208.787 M204.628 209.121 C 204.928 209.158,205.378 209.157,205.628 209.119 C 205.878 209.081,205.633 209.051,205.083 209.052 C 204.533 209.053,204.328 209.084,204.628 209.121 M254.575 210.042 L 253.917 210.750 254.625 210.091 C 255.284 209.478,255.410 209.333,255.284 209.333 C 255.257 209.333,254.938 209.652,254.575 210.042 M300.708 210.115 C 300.869 210.157,301.131 210.157,301.292 210.115 C 301.452 210.073,301.321 210.039,301.000 210.039 C 300.679 210.039,300.548 210.073,300.708 210.115 M303.042 210.115 C 303.202 210.157,303.465 210.157,303.625 210.115 C 303.785 210.073,303.654 210.039,303.333 210.039 C 303.012 210.039,302.881 210.073,303.042 210.115 M228.050 211.167 C 228.050 211.671,228.081 211.877,228.119 211.625 C 228.158 211.373,228.158 210.960,228.119 210.708 C 228.081 210.456,228.050 210.662,228.050 211.167 M265.160 211.708 C 265.850 212.444,266.000 212.577,266.000 212.451 C 266.000 212.425,265.644 212.068,265.208 211.660 L 264.417 210.917 265.160 211.708 M174.205 214.167 C 174.205 214.487,174.240 214.619,174.282 214.458 C 174.323 214.298,174.323 214.035,174.282 213.875 C 174.240 213.715,174.205 213.846,174.205 214.167 M186.500 213.719 C 186.500 213.748,186.744 213.991,187.042 214.260 L 187.583 214.750 187.094 214.208 C 186.638 213.703,186.500 213.590,186.500 213.719 M49.545 219.167 C 49.545 219.579,49.578 219.748,49.618 219.542 C 49.657 219.335,49.657 218.998,49.618 218.792 C 49.578 218.585,49.545 218.754,49.545 219.167 M280.577 219.375 L 279.750 220.250 280.625 219.423 C 281.106 218.968,281.500 218.574,281.500 218.548 C 281.500 218.424,281.346 218.562,280.577 219.375 M307.042 219.750 C 307.044 220.117,307.078 220.247,307.118 220.040 C 307.158 219.832,307.156 219.532,307.115 219.373 C 307.073 219.214,307.040 219.383,307.042 219.750 M299.991 220.292 L 299.417 220.917 300.042 220.342 C 300.385 220.026,300.667 219.745,300.667 219.717 C 300.667 219.590,300.526 219.710,299.991 220.292 M270.396 240.833 C 270.396 241.887,270.423 242.319,270.456 241.792 C 270.490 241.265,270.490 240.402,270.456 239.875 C 270.423 239.348,270.396 239.779,270.396 240.833 M147.048 240.417 C 147.049 240.875,147.081 241.043,147.120 240.789 C 147.158 240.536,147.157 240.161,147.117 239.956 C 147.078 239.751,147.046 239.958,147.048 240.417 M161.881 243.417 C 161.882 243.875,161.915 244.043,161.953 243.789 C 161.991 243.536,161.990 243.161,161.951 242.956 C 161.911 242.751,161.880 242.958,161.881 243.417 M244.888 251.583 C 244.889 252.225,244.919 252.467,244.955 252.121 C 244.991 251.775,244.990 251.250,244.954 250.955 C 244.917 250.659,244.887 250.942,244.888 251.583 M261.240 257.875 L 260.750 258.417 261.292 257.927 C 261.797 257.471,261.910 257.333,261.781 257.333 C 261.752 257.333,261.509 257.577,261.240 257.875 M84.709 258.417 C 84.711 258.783,84.745 258.914,84.785 258.706 C 84.824 258.499,84.823 258.199,84.781 258.040 C 84.739 257.880,84.707 258.050,84.709 258.417 M132.545 258.500 C 132.545 258.912,132.578 259.081,132.618 258.875 C 132.657 258.669,132.657 258.331,132.618 258.125 C 132.578 257.919,132.545 258.087,132.545 258.500 M222.993 262.708 C 223.684 263.444,223.833 263.577,223.833 263.451 C 223.833 263.425,223.477 263.068,223.042 262.660 L 222.250 261.917 222.993 262.708 M170.500 263.583 C 170.811 263.904,171.103 264.167,171.149 264.167 C 171.195 264.167,170.978 263.904,170.667 263.583 C 170.356 263.262,170.064 263.000,170.018 263.000 C 169.972 263.000,170.189 263.262,170.500 263.583 M249.333 263.583 C 249.644 263.904,249.936 264.167,249.982 264.167 C 250.028 264.167,249.811 263.904,249.500 263.583 C 249.189 263.262,248.897 263.000,248.851 263.000 C 248.805 263.000,249.022 263.262,249.333 263.583 M355.995 265.292 L 354.917 266.417 356.042 265.338 C 357.087 264.336,357.243 264.167,357.120 264.167 C 357.095 264.167,356.588 264.673,355.995 265.292 M134.205 264.833 C 134.205 265.154,134.240 265.285,134.282 265.125 C 134.323 264.965,134.323 264.702,134.282 264.542 C 134.240 264.381,134.205 264.512,134.205 264.833 M206.458 266.784 C 206.665 266.824,207.002 266.824,207.208 266.784 C 207.415 266.745,207.246 266.712,206.833 266.712 C 206.421 266.712,206.252 266.745,206.458 266.784 M44.557 268.083 C 44.558 268.817,44.587 269.096,44.622 268.704 C 44.657 268.312,44.657 267.712,44.621 267.371 C 44.585 267.029,44.557 267.350,44.557 268.083 M316.917 269.167 C 317.275 269.533,317.605 269.833,317.651 269.833 C 317.697 269.833,317.441 269.533,317.083 269.167 C 316.725 268.800,316.395 268.500,316.349 268.500 C 316.303 268.500,316.559 268.800,316.917 269.167 M361.242 270.042 L 360.583 270.750 361.292 270.091 C 361.950 269.478,362.077 269.333,361.950 269.333 C 361.923 269.333,361.605 269.652,361.242 270.042 M292.208 269.621 C 292.552 269.657,293.115 269.657,293.458 269.621 C 293.802 269.585,293.521 269.556,292.833 269.556 C 292.146 269.556,291.865 269.585,292.208 269.621 M359.742 271.542 L 359.083 272.250 359.792 271.591 C 360.450 270.978,360.577 270.833,360.450 270.833 C 360.423 270.833,360.105 271.152,359.742 271.542 M86.667 272.917 C 85.984 273.604,85.463 274.167,85.508 274.167 C 85.554 274.167,86.150 273.604,86.833 272.917 C 87.516 272.229,88.037 271.667,87.992 271.667 C 87.946 271.667,87.350 272.229,86.667 272.917 M69.214 274.583 C 69.216 275.042,69.248 275.209,69.286 274.956 C 69.325 274.703,69.324 274.328,69.284 274.123 C 69.244 273.918,69.213 274.125,69.214 274.583 M60.205 276.833 C 60.205 277.154,60.240 277.285,60.282 277.125 C 60.323 276.965,60.323 276.702,60.282 276.542 C 60.240 276.381,60.205 276.512,60.205 276.833 M336.328 281.125 L 335.417 282.083 336.375 281.172 C 336.902 280.671,337.333 280.240,337.333 280.214 C 337.333 280.090,337.174 280.235,336.328 281.125 M342.833 285.583 C 342.428 285.996,342.135 286.333,342.181 286.333 C 342.226 286.333,342.595 285.996,343.000 285.583 C 343.405 285.171,343.699 284.833,343.653 284.833 C 343.607 284.833,343.238 285.171,342.833 285.583 M63.500 286.885 C 63.500 286.914,63.744 287.158,64.042 287.427 L 64.583 287.917 64.094 287.375 C 63.638 286.870,63.500 286.757,63.500 286.885 M215.375 287.750 C 215.377 288.117,215.411 288.247,215.451 288.040 C 215.491 287.832,215.490 287.532,215.448 287.373 C 215.406 287.214,215.374 287.383,215.375 287.750 M163.417 288.667 C 163.775 289.033,164.105 289.333,164.151 289.333 C 164.197 289.333,163.941 289.033,163.583 288.667 C 163.225 288.300,162.895 288.000,162.849 288.000 C 162.803 288.000,163.059 288.300,163.417 288.667 M337.906 289.875 L 337.417 290.417 337.958 289.927 C 338.463 289.471,338.577 289.333,338.448 289.333 C 338.419 289.333,338.175 289.577,337.906 289.875 M344.328 290.458 L 343.417 291.417 344.375 290.506 C 345.265 289.659,345.410 289.500,345.286 289.500 C 345.260 289.500,344.829 289.931,344.328 290.458 M70.542 289.948 C 70.702 289.990,70.965 289.990,71.125 289.948 C 71.285 289.906,71.154 289.872,70.833 289.872 C 70.512 289.872,70.381 289.906,70.542 289.948 M304.661 291.958 L 303.750 292.917 304.746 292.000 C 305.294 291.496,305.775 291.065,305.816 291.042 C 305.856 291.019,305.818 291.000,305.730 291.000 C 305.643 291.000,305.162 291.431,304.661 291.958 M330.050 293.333 C 330.050 293.837,330.081 294.044,330.119 293.792 C 330.158 293.540,330.158 293.127,330.119 292.875 C 330.081 292.623,330.050 292.829,330.050 293.333 M153.667 294.750 C 153.978 295.071,154.270 295.333,154.315 295.333 C 154.361 295.333,154.144 295.071,153.833 294.750 C 153.522 294.429,153.230 294.167,153.185 294.167 C 153.139 294.167,153.356 294.429,153.667 294.750 M309.875 296.948 C 310.035 296.990,310.298 296.990,310.458 296.948 C 310.619 296.906,310.487 296.872,310.167 296.872 C 309.846 296.872,309.715 296.906,309.875 296.948 M238.661 298.625 L 237.750 299.583 238.708 298.672 C 239.235 298.171,239.667 297.740,239.667 297.714 C 239.667 297.590,239.507 297.735,238.661 298.625 M267.542 298.417 C 267.544 298.783,267.578 298.914,267.618 298.706 C 267.658 298.499,267.656 298.199,267.615 298.040 C 267.573 297.880,267.540 298.050,267.542 298.417 M261.383 299.333 C 261.383 299.837,261.415 300.044,261.453 299.792 C 261.491 299.540,261.491 299.127,261.453 298.875 C 261.415 298.623,261.383 298.829,261.383 299.333 M254.661 299.625 L 253.750 300.583 254.708 299.672 C 255.235 299.171,255.667 298.740,255.667 298.714 C 255.667 298.590,255.507 298.735,254.661 299.625 M69.458 299.622 C 69.848 299.657,70.485 299.657,70.875 299.622 C 71.265 299.587,70.946 299.558,70.167 299.558 C 69.387 299.558,69.069 299.587,69.458 299.622 M309.709 301.250 C 309.711 301.617,309.745 301.747,309.785 301.540 C 309.824 301.332,309.823 301.032,309.781 300.873 C 309.739 300.714,309.707 300.883,309.709 301.250 M274.240 302.042 L 273.750 302.583 274.292 302.094 C 274.797 301.638,274.910 301.500,274.781 301.500 C 274.752 301.500,274.509 301.744,274.240 302.042 M316.906 303.208 L 316.417 303.750 316.958 303.260 C 317.463 302.804,317.577 302.667,317.448 302.667 C 317.419 302.667,317.175 302.910,316.906 303.208 M150.458 305.618 C 150.665 305.657,151.002 305.657,151.208 305.618 C 151.415 305.578,151.246 305.545,150.833 305.545 C 150.421 305.545,150.252 305.578,150.458 305.618 M283.960 305.618 C 284.168 305.658,284.468 305.656,284.627 305.615 C 284.786 305.573,284.617 305.540,284.250 305.542 C 283.883 305.544,283.753 305.578,283.960 305.618 M295.375 306.282 C 295.535 306.323,295.798 306.323,295.958 306.282 C 296.119 306.240,295.987 306.205,295.667 306.205 C 295.346 306.205,295.215 306.240,295.375 306.282 M336.991 309.125 L 336.417 309.750 337.042 309.176 C 337.385 308.860,337.667 308.578,337.667 308.551 C 337.667 308.423,337.526 308.543,336.991 309.125 M127.826 310.375 C 128.517 311.111,128.667 311.243,128.667 311.118 C 128.667 311.091,128.310 310.735,127.875 310.326 L 127.083 309.583 127.826 310.375 M328.961 312.621 C 329.261 312.658,329.711 312.657,329.961 312.619 C 330.212 312.581,329.967 312.551,329.417 312.552 C 328.867 312.553,328.662 312.584,328.961 312.621 M80.667 315.213 C 80.667 315.238,81.248 315.819,81.958 316.504 L 83.250 317.750 82.004 316.458 C 80.847 315.259,80.667 315.091,80.667 315.213 M134.208 318.948 C 134.369 318.990,134.631 318.990,134.792 318.948 C 134.952 318.906,134.821 318.872,134.500 318.872 C 134.179 318.872,134.048 318.906,134.208 318.948 M131.250 321.000 C 131.701 321.458,132.108 321.833,132.154 321.833 C 132.200 321.833,131.868 321.458,131.417 321.000 C 130.965 320.542,130.558 320.167,130.513 320.167 C 130.467 320.167,130.799 320.542,131.250 321.000 M123.250 324.000 C 123.979 324.733,124.613 325.333,124.659 325.333 C 124.705 325.333,124.146 324.733,123.417 324.000 C 122.688 323.267,122.054 322.667,122.008 322.667 C 121.962 322.667,122.521 323.267,123.250 324.000 M134.212 345.833 C 134.212 346.246,134.245 346.415,134.284 346.208 C 134.324 346.002,134.324 345.665,134.284 345.458 C 134.245 345.252,134.212 345.421,134.212 345.833 " stroke="none" fill="#565656" fill-rule="evenodd"></path><path id="path3" d="M256.000 59.583 C 256.498 60.087,256.943 60.500,256.989 60.500 C 257.034 60.500,256.665 60.087,256.167 59.583 C 255.669 59.079,255.224 58.667,255.178 58.667 C 255.132 58.667,255.502 59.079,256.000 59.583 M275.000 75.219 C 275.000 75.248,275.244 75.491,275.542 75.760 L 276.083 76.250 275.594 75.708 C 275.138 75.203,275.000 75.090,275.000 75.219 M313.333 80.052 C 313.333 80.081,313.577 80.325,313.875 80.594 L 314.417 81.083 313.927 80.542 C 313.471 80.037,313.333 79.923,313.333 80.052 M79.875 84.615 C 80.035 84.657,80.298 84.657,80.458 84.615 C 80.619 84.573,80.487 84.539,80.167 84.539 C 79.846 84.539,79.715 84.573,79.875 84.615 M265.833 85.250 C 266.144 85.571,266.436 85.833,266.482 85.833 C 266.528 85.833,266.311 85.571,266.000 85.250 C 265.689 84.929,265.397 84.667,265.351 84.667 C 265.305 84.667,265.522 84.929,265.833 85.250 M320.000 86.750 C 320.311 87.071,320.603 87.333,320.649 87.333 C 320.695 87.333,320.478 87.071,320.167 86.750 C 319.856 86.429,319.564 86.167,319.518 86.167 C 319.472 86.167,319.689 86.429,320.000 86.750 M247.542 94.615 C 247.702 94.657,247.965 94.657,248.125 94.615 C 248.285 94.573,248.154 94.539,247.833 94.539 C 247.512 94.539,247.381 94.573,247.542 94.615 M117.750 99.833 C 118.479 100.567,119.113 101.167,119.159 101.167 C 119.205 101.167,118.646 100.567,117.917 99.833 C 117.188 99.100,116.554 98.500,116.508 98.500 C 116.462 98.500,117.021 99.100,117.750 99.833 M85.458 99.954 C 85.756 99.991,86.244 99.991,86.542 99.954 C 86.840 99.917,86.596 99.887,86.000 99.887 C 85.404 99.887,85.160 99.917,85.458 99.954 M246.917 106.833 C 247.275 107.200,247.605 107.500,247.651 107.500 C 247.697 107.500,247.441 107.200,247.083 106.833 C 246.725 106.467,246.395 106.167,246.349 106.167 C 246.303 106.167,246.559 106.467,246.917 106.833 M321.750 108.500 C 322.108 108.867,322.438 109.167,322.484 109.167 C 322.530 109.167,322.275 108.867,321.917 108.500 C 321.559 108.133,321.228 107.833,321.182 107.833 C 321.137 107.833,321.392 108.133,321.750 108.500 M79.208 112.453 C 79.460 112.491,79.873 112.491,80.125 112.453 C 80.377 112.415,80.171 112.383,79.667 112.383 C 79.162 112.383,78.956 112.415,79.208 112.453 M232.379 132.833 C 232.379 133.246,232.411 133.415,232.451 133.208 C 232.491 133.002,232.491 132.665,232.451 132.458 C 232.411 132.252,232.379 132.421,232.379 132.833 M174.417 139.167 C 174.775 139.533,175.105 139.833,175.151 139.833 C 175.197 139.833,174.941 139.533,174.583 139.167 C 174.225 138.800,173.895 138.500,173.849 138.500 C 173.803 138.500,174.059 138.800,174.417 139.167 M147.048 146.083 C 147.049 146.542,147.081 146.709,147.120 146.456 C 147.158 146.203,147.157 145.828,147.117 145.623 C 147.078 145.418,147.046 145.625,147.048 146.083 M328.411 146.875 L 327.417 147.917 328.458 146.922 C 329.031 146.375,329.500 145.906,329.500 145.880 C 329.500 145.757,329.336 145.907,328.411 146.875 M280.390 149.083 C 280.391 149.817,280.420 150.096,280.456 149.704 C 280.491 149.312,280.490 148.712,280.454 148.371 C 280.419 148.029,280.390 148.350,280.390 149.083 M99.913 151.375 L 98.583 152.750 99.958 151.421 C 101.235 150.186,101.409 150.000,101.288 150.000 C 101.263 150.000,100.644 150.619,99.913 151.375 M349.000 161.417 C 348.595 161.829,348.301 162.167,348.347 162.167 C 348.393 162.167,348.762 161.829,349.167 161.417 C 349.572 161.004,349.865 160.667,349.819 160.667 C 349.774 160.667,349.405 161.004,349.000 161.417 M282.991 166.292 L 282.417 166.917 283.042 166.342 C 283.623 165.808,283.743 165.667,283.616 165.667 C 283.588 165.667,283.307 165.948,282.991 166.292 M354.409 167.042 L 353.750 167.750 354.458 167.091 C 355.117 166.478,355.243 166.333,355.117 166.333 C 355.090 166.333,354.771 166.652,354.409 167.042 M352.909 168.542 L 352.250 169.250 352.958 168.591 C 353.617 167.978,353.743 167.833,353.617 167.833 C 353.590 167.833,353.271 168.152,352.909 168.542 M280.658 168.625 L 280.083 169.250 280.708 168.676 C 281.290 168.141,281.410 168.000,281.283 168.000 C 281.255 168.000,280.974 168.281,280.658 168.625 M217.709 172.417 C 217.711 172.783,217.745 172.914,217.785 172.706 C 217.824 172.499,217.823 172.199,217.781 172.040 C 217.739 171.880,217.707 172.050,217.709 172.417 M287.539 176.667 C 287.539 176.987,287.573 177.119,287.615 176.958 C 287.657 176.798,287.657 176.535,287.615 176.375 C 287.573 176.215,287.539 176.346,287.539 176.667 M214.792 177.118 C 214.998 177.157,215.335 177.157,215.542 177.118 C 215.748 177.078,215.579 177.045,215.167 177.045 C 214.754 177.045,214.585 177.078,214.792 177.118 M337.050 178.833 C 337.050 179.338,337.081 179.544,337.119 179.292 C 337.158 179.040,337.158 178.627,337.119 178.375 C 337.081 178.123,337.050 178.329,337.050 178.833 M303.039 181.333 C 303.039 181.654,303.073 181.785,303.115 181.625 C 303.157 181.465,303.157 181.202,303.115 181.042 C 303.073 180.881,303.039 181.012,303.039 181.333 M314.240 184.208 L 313.750 184.750 314.292 184.260 C 314.797 183.804,314.910 183.667,314.781 183.667 C 314.752 183.667,314.509 183.910,314.240 184.208 M365.240 185.375 L 364.750 185.917 365.292 185.427 C 365.797 184.971,365.910 184.833,365.781 184.833 C 365.752 184.833,365.509 185.077,365.240 185.375 M157.493 187.375 C 158.184 188.111,158.333 188.243,158.333 188.118 C 158.333 188.091,157.977 187.735,157.542 187.326 L 156.750 186.583 157.493 187.375 M343.208 186.782 C 343.369 186.823,343.631 186.823,343.792 186.782 C 343.952 186.740,343.821 186.705,343.500 186.705 C 343.179 186.705,343.048 186.740,343.208 186.782 M327.750 189.167 C 328.108 189.533,328.438 189.833,328.484 189.833 C 328.530 189.833,328.275 189.533,327.917 189.167 C 327.559 188.800,327.228 188.500,327.182 188.500 C 327.137 188.500,327.392 188.800,327.750 189.167 M215.381 196.750 C 215.382 197.208,215.415 197.376,215.453 197.123 C 215.491 196.869,215.490 196.494,215.451 196.289 C 215.411 196.084,215.380 196.292,215.381 196.750 M228.375 204.948 C 228.535 204.990,228.798 204.990,228.958 204.948 C 229.119 204.906,228.987 204.872,228.667 204.872 C 228.346 204.872,228.215 204.906,228.375 204.948 M72.496 207.292 L 71.083 208.750 72.542 207.337 C 73.896 206.025,74.076 205.833,73.955 205.833 C 73.930 205.833,73.273 206.490,72.496 207.292 M174.218 212.417 C 174.219 212.967,174.250 213.172,174.287 212.872 C 174.325 212.572,174.324 212.122,174.286 211.872 C 174.248 211.622,174.217 211.867,174.218 212.417 M217.375 218.417 C 217.377 218.783,217.411 218.914,217.451 218.706 C 217.491 218.499,217.490 218.199,217.448 218.040 C 217.406 217.880,217.374 218.050,217.375 218.417 M83.333 219.417 C 82.650 220.104,82.129 220.667,82.175 220.667 C 82.221 220.667,82.817 220.104,83.500 219.417 C 84.183 218.729,84.704 218.167,84.658 218.167 C 84.612 218.167,84.016 218.729,83.333 219.417 M346.833 220.917 C 346.428 221.329,346.135 221.667,346.181 221.667 C 346.226 221.667,346.595 221.329,347.000 220.917 C 347.405 220.504,347.699 220.167,347.653 220.167 C 347.607 220.167,347.238 220.504,346.833 220.917 M101.575 244.708 L 100.917 245.417 101.625 244.758 C 102.284 244.145,102.410 244.000,102.284 244.000 C 102.257 244.000,101.938 244.319,101.575 244.708 M287.724 252.583 C 287.724 253.317,287.754 253.596,287.789 253.204 C 287.824 252.812,287.824 252.212,287.788 251.871 C 287.752 251.529,287.723 251.850,287.724 252.583 M210.491 257.292 L 209.917 257.917 210.542 257.342 C 211.123 256.808,211.243 256.667,211.116 256.667 C 211.088 256.667,210.807 256.948,210.491 257.292 M214.333 262.917 C 213.928 263.329,213.635 263.667,213.681 263.667 C 213.726 263.667,214.095 263.329,214.500 262.917 C 214.905 262.504,215.199 262.167,215.153 262.167 C 215.107 262.167,214.738 262.504,214.333 262.917 M199.167 262.917 C 199.478 263.237,199.770 263.500,199.815 263.500 C 199.861 263.500,199.644 263.237,199.333 262.917 C 199.022 262.596,198.730 262.333,198.685 262.333 C 198.639 262.333,198.856 262.596,199.167 262.917 M278.667 263.250 C 279.165 263.754,279.609 264.167,279.655 264.167 C 279.701 264.167,279.331 263.754,278.833 263.250 C 278.335 262.746,277.891 262.333,277.845 262.333 C 277.799 262.333,278.169 262.746,278.667 263.250 M143.385 265.250 C 143.386 265.800,143.417 266.005,143.454 265.705 C 143.491 265.406,143.490 264.956,143.452 264.705 C 143.414 264.455,143.384 264.700,143.385 265.250 M183.324 264.958 L 182.750 265.583 183.375 265.009 C 183.719 264.693,184.000 264.412,184.000 264.384 C 184.000 264.257,183.859 264.377,183.324 264.958 M256.958 267.451 C 257.165 267.491,257.502 267.491,257.708 267.451 C 257.915 267.411,257.746 267.379,257.333 267.379 C 256.921 267.379,256.752 267.411,256.958 267.451 M60.064 273.333 C 60.064 274.479,60.091 274.948,60.123 274.375 C 60.156 273.802,60.156 272.865,60.123 272.292 C 60.091 271.719,60.064 272.188,60.064 273.333 M241.548 278.750 C 241.549 279.208,241.581 279.376,241.620 279.123 C 241.658 278.869,241.657 278.494,241.617 278.289 C 241.578 278.084,241.546 278.292,241.548 278.750 M220.500 279.583 C 220.095 279.996,219.801 280.333,219.847 280.333 C 219.893 280.333,220.262 279.996,220.667 279.583 C 221.072 279.171,221.365 278.833,221.319 278.833 C 221.274 278.833,220.905 279.171,220.500 279.583 M225.079 282.208 L 223.750 283.583 225.125 282.254 C 226.402 281.019,226.576 280.833,226.454 280.833 C 226.429 280.833,225.811 281.452,225.079 282.208 M336.542 284.948 C 336.702 284.990,336.965 284.990,337.125 284.948 C 337.285 284.906,337.154 284.872,336.833 284.872 C 336.512 284.872,336.381 284.906,336.542 284.948 M255.312 286.625 C 255.108 286.886,255.113 286.894,255.359 286.701 C 255.584 286.525,255.650 286.525,255.721 286.701 C 255.776 286.838,255.812 286.810,255.820 286.625 C 255.827 286.465,255.768 286.333,255.687 286.333 C 255.607 286.333,255.438 286.465,255.312 286.625 M315.906 287.875 L 315.417 288.417 315.958 287.927 C 316.463 287.471,316.577 287.333,316.448 287.333 C 316.419 287.333,316.175 287.577,315.906 287.875 M286.705 289.000 C 286.705 289.321,286.740 289.452,286.782 289.292 C 286.823 289.131,286.823 288.869,286.782 288.708 C 286.740 288.548,286.705 288.679,286.705 289.000 M288.205 290.667 C 288.205 290.987,288.240 291.119,288.282 290.958 C 288.323 290.798,288.323 290.535,288.282 290.375 C 288.240 290.215,288.205 290.346,288.205 290.667 M104.742 293.375 L 104.083 294.083 104.792 293.425 C 105.450 292.812,105.577 292.667,105.450 292.667 C 105.423 292.667,105.105 292.985,104.742 293.375 M103.242 294.875 L 102.583 295.583 103.292 294.925 C 103.950 294.312,104.077 294.167,103.950 294.167 C 103.923 294.167,103.605 294.485,103.242 294.875 M285.333 295.083 C 285.644 295.404,285.936 295.667,285.982 295.667 C 286.028 295.667,285.811 295.404,285.500 295.083 C 285.189 294.762,284.897 294.500,284.851 294.500 C 284.805 294.500,285.022 294.762,285.333 295.083 M273.158 298.625 L 272.583 299.250 273.208 298.676 C 273.790 298.141,273.910 298.000,273.783 298.000 C 273.755 298.000,273.474 298.281,273.158 298.625 M262.000 301.885 C 262.000 301.914,262.244 302.158,262.542 302.427 L 263.083 302.917 262.594 302.375 C 262.138 301.870,262.000 301.757,262.000 301.885 M329.824 306.458 L 329.250 307.083 329.875 306.509 C 330.219 306.193,330.500 305.912,330.500 305.884 C 330.500 305.757,330.359 305.877,329.824 306.458 M320.667 311.219 C 320.667 311.248,320.910 311.491,321.208 311.760 L 321.750 312.250 321.260 311.708 C 320.804 311.203,320.667 311.090,320.667 311.219 M79.000 313.417 C 79.311 313.737,79.603 314.000,79.649 314.000 C 79.695 314.000,79.478 313.737,79.167 313.417 C 78.856 313.096,78.564 312.833,78.518 312.833 C 78.472 312.833,78.689 313.096,79.000 313.417 M324.042 313.115 C 324.202 313.157,324.465 313.157,324.625 313.115 C 324.785 313.073,324.654 313.039,324.333 313.039 C 324.012 313.039,323.881 313.073,324.042 313.115 M84.500 318.885 C 84.500 318.914,84.744 319.158,85.042 319.427 L 85.583 319.917 85.094 319.375 C 84.638 318.870,84.500 318.757,84.500 318.885 " stroke="none" fill="#848484" fill-rule="evenodd"></path><path id="path4" d="M248.167 102.000 L 246.417 102.101 248.115 102.134 C 249.105 102.153,249.857 102.097,249.917 102.000 C 249.973 101.908,249.996 101.848,249.968 101.866 C 249.940 101.884,249.129 101.944,248.167 102.000 M281.824 167.458 L 281.250 168.083 281.875 167.509 C 282.457 166.974,282.577 166.833,282.449 166.833 C 282.422 166.833,282.140 167.115,281.824 167.458 M301.792 210.118 C 301.998 210.157,302.335 210.157,302.542 210.118 C 302.748 210.078,302.579 210.045,302.167 210.045 C 301.754 210.045,301.585 210.078,301.792 210.118 " stroke="none" fill="#7c7c7c" fill-rule="evenodd"></path></g></svg>